<svg width="14" height="14" viewBox="0 0 14 14" fill="none" xmlns="http://www.w3.org/2000/svg">
<path d="M3.69278 10.1347C3.69278 10.4547 3.95391 10.7158 4.2752 10.7158H4.94102V12.3619C4.94102 12.7789 5.27598 13.1193 5.68751 13.1193C6.1004 13.1193 6.43399 12.7803 6.43399 12.3619V10.7144H7.5961V12.3605C7.5961 12.7775 7.93106 13.118 8.34258 13.118C8.75548 13.118 9.08907 12.7789 9.08907 12.3605V10.7144H9.75489C10.0762 10.7144 10.3373 10.4533 10.3373 10.1334V4.73026H3.69278V10.1347ZM8.57501 1.93026L9.18887 1.04159C9.22442 0.989632 9.21622 0.919906 9.16837 0.885726C9.12051 0.852913 9.05216 0.86932 9.01661 0.921273L8.3795 1.84549C7.95977 1.68006 7.49219 1.58846 7.00137 1.58846C6.51055 1.58846 6.04297 1.68006 5.62325 1.84549L4.98614 0.92264C4.95059 0.870687 4.88223 0.852913 4.83438 0.887093C4.78653 0.919906 4.77833 0.988265 4.81387 1.04295L5.42774 1.93162C4.45157 2.38553 3.76797 3.24549 3.68047 4.25037H10.325C10.2348 3.24412 9.54981 2.38416 8.57501 1.93026ZM5.59864 3.33162C5.5259 3.33162 5.4548 3.31005 5.39432 3.26964C5.33384 3.22923 5.2867 3.17179 5.25886 3.10459C5.23102 3.03739 5.22374 2.96344 5.23793 2.8921C5.25212 2.82076 5.28715 2.75523 5.33858 2.7038C5.39002 2.65236 5.45555 2.61733 5.52689 2.60314C5.59823 2.58895 5.67218 2.59624 5.73938 2.62407C5.80658 2.65191 5.86402 2.69905 5.90443 2.75953C5.94484 2.82001 5.96641 2.89111 5.96641 2.96385C5.96616 3.06131 5.92733 3.15471 5.85841 3.22363C5.7895 3.29254 5.6961 3.33137 5.59864 3.33162ZM8.44786 3.33162C8.37512 3.33162 8.30401 3.31005 8.24353 3.26964C8.18305 3.22923 8.13592 3.17179 8.10808 3.10459C8.08024 3.03739 8.07296 2.96344 8.08715 2.8921C8.10134 2.82076 8.13637 2.75523 8.1878 2.7038C8.23924 2.65236 8.30477 2.61733 8.37611 2.60314C8.44745 2.58895 8.5214 2.59624 8.5886 2.62407C8.6558 2.65191 8.71324 2.69905 8.75365 2.75953C8.79406 2.82001 8.81563 2.89111 8.81563 2.96385C8.81538 3.06131 8.77655 3.15471 8.70763 3.22363C8.63872 3.29254 8.54532 3.33137 8.44786 3.33162ZM11.5022 4.70838C11.0893 4.70838 10.7557 5.04745 10.7557 5.4658V8.4244C10.7557 8.84139 11.0906 9.18182 11.5022 9.18182C11.915 9.18182 12.2486 8.84276 12.2486 8.4244V5.46444C12.25 5.04608 11.9164 4.70838 11.5022 4.70838ZM2.49786 4.70838C2.08497 4.70838 1.75137 5.04745 1.75137 5.4658V8.4244C1.75137 8.84139 2.08633 9.18182 2.49786 9.18182C2.91075 9.18182 3.24434 8.84276 3.24434 8.4244V5.46444C3.24434 5.04608 2.90938 4.70838 2.49786 4.70838Z" fill="#637381"/>
</svg>
