<svg width="11" height="12" viewBox="0 0 11 12" fill="none" xmlns="http://www.w3.org/2000/svg">
<path d="M6.62066 2.89963L7.05525 2.72113C7.40816 2.58113 7.86433 2.43821 8.40275 2.52863C9.50583 2.71413 10.2665 3.30971 10.7197 4.09955C10.8947 4.40405 10.7536 4.80538 10.4269 4.93313C10.1471 5.04261 9.90784 5.23583 9.74195 5.48639C9.57606 5.73695 9.49158 6.03262 9.50007 6.333C9.50856 6.63339 9.6096 6.92382 9.78938 7.16461C9.96916 7.4054 10.2189 7.5848 10.5045 7.6783C10.8067 7.77746 10.977 8.11288 10.8778 8.41505C10.62 9.19788 10.249 9.92063 9.80975 10.504C9.37575 11.0803 8.84608 11.5586 8.25633 11.7925C7.87133 11.9442 7.45833 11.8876 7.06341 11.7896L6.82891 11.7272L6.48066 11.6263C6.32258 11.5802 6.15983 11.5405 6 11.5405C5.83958 11.5405 5.67741 11.5802 5.51933 11.6263L5.17108 11.7272L4.93658 11.7896C4.54166 11.8876 4.12808 11.9448 3.74366 11.7925C3.00108 11.4985 2.346 10.8125 1.85075 10.0035C1.31459 9.11249 0.960845 8.12384 0.810081 7.09496C0.677664 6.18846 0.749414 5.17055 1.16883 4.30955C1.6005 3.4223 2.3915 2.73163 3.59725 2.52863C4.08725 2.44638 4.50841 2.55663 4.84558 2.68321L5.03866 2.75905L5.37933 2.89963C5.61266 2.99121 5.79641 3.04488 6 3.04488C6.203 3.04488 6.38733 2.99121 6.62066 2.89963ZM5.86466 0.614715C6.434 0.0447982 7.30841 -0.0042017 7.51433 0.202298C7.72083 0.408215 7.67183 1.28263 7.10191 1.85196C6.53258 2.4213 5.65816 2.4703 5.45225 2.26438C5.24575 2.05847 5.29475 1.18405 5.86466 0.614715Z" fill="#637381"/>
</svg>
