<svg width="16" height="16" viewBox="0 0 16 16" fill="none" xmlns="http://www.w3.org/2000/svg">
<path d="M6.66667 12.6667C6.5109 12.667 6.35994 12.6127 6.24 12.5133C6.10366 12.4003 6.0179 12.2377 6.00164 12.0613C5.98538 11.885 6.03996 11.7094 6.15333 11.5733L9.14 8L6.26 4.42C6.14815 4.28227 6.09582 4.10564 6.11459 3.92922C6.13336 3.75279 6.22168 3.59112 6.36 3.48C6.49944 3.35731 6.68375 3.29835 6.86852 3.31734C7.05328 3.33632 7.22175 3.43152 7.33333 3.58L10.5533 7.58C10.7555 7.826 10.7555 8.18067 10.5533 8.42667L7.22 12.4267C7.08436 12.5903 6.87882 12.6794 6.66667 12.6667Z" fill="#637381"/>
</svg>
