<svg width="712" height="318" viewBox="0 0 712 318" fill="none" xmlns="http://www.w3.org/2000/svg">
<path d="M30.7203 37V30.094H29.0463V29.368C29.5663 29.368 29.9703 29.33 30.2583 29.254C30.5463 29.178 30.7503 29.062 30.8703 28.906C30.9943 28.75 31.0623 28.556 31.0743 28.324H31.8663V37H30.7203ZM37.041 37.132C36.093 37.132 35.341 36.76 34.785 36.016C34.229 35.268 33.951 34.162 33.951 32.698C33.951 31.71 34.079 30.882 34.335 30.214C34.591 29.546 34.951 29.044 35.415 28.708C35.879 28.372 36.425 28.204 37.053 28.204C37.993 28.204 38.741 28.582 39.297 29.338C39.857 30.09 40.137 31.204 40.137 32.68C40.137 34.148 39.859 35.258 39.303 36.01C38.747 36.758 37.993 37.132 37.041 37.132ZM37.053 36.172C37.673 36.172 38.141 35.9 38.457 35.356C38.777 34.808 38.937 33.918 38.937 32.686C38.937 31.43 38.775 30.526 38.451 29.974C38.131 29.418 37.663 29.14 37.047 29.14C36.435 29.14 35.963 29.42 35.631 29.98C35.303 30.536 35.139 31.438 35.139 32.686C35.139 33.914 35.303 34.802 35.631 35.35C35.959 35.898 36.433 36.172 37.053 36.172ZM44.3183 37.132C43.3703 37.132 42.6183 36.76 42.0623 36.016C41.5063 35.268 41.2283 34.162 41.2283 32.698C41.2283 31.71 41.3563 30.882 41.6123 30.214C41.8683 29.546 42.2283 29.044 42.6923 28.708C43.1563 28.372 43.7023 28.204 44.3303 28.204C45.2703 28.204 46.0183 28.582 46.5743 29.338C47.1343 30.09 47.4143 31.204 47.4143 32.68C47.4143 34.148 47.1363 35.258 46.5803 36.01C46.0243 36.758 45.2703 37.132 44.3183 37.132ZM44.3303 36.172C44.9503 36.172 45.4183 35.9 45.7343 35.356C46.0543 34.808 46.2143 33.918 46.2143 32.686C46.2143 31.43 46.0523 30.526 45.7283 29.974C45.4083 29.418 44.9403 29.14 44.3243 29.14C43.7123 29.14 43.2403 29.42 42.9083 29.98C42.5803 30.536 42.4163 31.438 42.4163 32.686C42.4163 33.914 42.5803 34.802 42.9083 35.35C43.2363 35.898 43.7103 36.172 44.3303 36.172Z" fill="#919EAB"/>
<path d="M36.8351 81.532C36.1711 81.532 35.5911 81.43 35.0951 81.226C34.5991 81.018 34.2131 80.728 33.9371 80.356C33.6651 79.984 33.5291 79.548 33.5291 79.048C33.5291 78.712 33.6131 78.39 33.7811 78.082C33.9531 77.774 34.1731 77.512 34.4411 77.296C34.7091 77.08 34.9891 76.944 35.2811 76.888C34.8851 76.72 34.5571 76.476 34.2971 76.156C34.0411 75.836 33.9131 75.44 33.9131 74.968C33.9131 74.464 34.0411 74.036 34.2971 73.684C34.5531 73.332 34.9011 73.064 35.3411 72.88C35.7851 72.696 36.2831 72.604 36.8351 72.604C37.3911 72.604 37.8891 72.696 38.3291 72.88C38.7691 73.064 39.1171 73.332 39.3731 73.684C39.6291 74.036 39.7571 74.464 39.7571 74.968C39.7571 75.44 39.6291 75.836 39.3731 76.156C39.1211 76.476 38.7951 76.72 38.3951 76.888C38.6871 76.944 38.9651 77.08 39.2291 77.296C39.4971 77.512 39.7171 77.774 39.8891 78.082C40.0611 78.39 40.1471 78.712 40.1471 79.048C40.1471 79.548 40.0091 79.984 39.7331 80.356C39.4611 80.728 39.0771 81.018 38.5811 81.226C38.0851 81.43 37.5031 81.532 36.8351 81.532ZM36.8351 80.632C37.4791 80.632 37.9931 80.488 38.3771 80.2C38.7611 79.908 38.9531 79.522 38.9531 79.042C38.9531 78.726 38.8651 78.444 38.6891 78.196C38.5171 77.948 38.2731 77.754 37.9571 77.614C37.6411 77.47 37.2671 77.398 36.8351 77.398C36.4071 77.398 36.0351 77.47 35.7191 77.614C35.4071 77.754 35.1631 77.948 34.9871 78.196C34.8151 78.444 34.7291 78.726 34.7291 79.042C34.7291 79.522 34.9191 79.908 35.2991 80.2C35.6831 80.488 36.1951 80.632 36.8351 80.632ZM36.8351 76.42C37.3631 76.42 37.7911 76.29 38.1191 76.03C38.4511 75.77 38.6171 75.408 38.6171 74.944C38.6171 74.476 38.4511 74.108 38.1191 73.84C37.7871 73.568 37.3591 73.432 36.8351 73.432C36.3111 73.432 35.8831 73.568 35.5511 73.84C35.2191 74.112 35.0531 74.48 35.0531 74.944C35.0531 75.408 35.2191 75.77 35.5511 76.03C35.8831 76.29 36.3111 76.42 36.8351 76.42ZM44.3183 81.532C43.3703 81.532 42.6183 81.16 42.0623 80.416C41.5063 79.668 41.2283 78.562 41.2283 77.098C41.2283 76.11 41.3563 75.282 41.6123 74.614C41.8683 73.946 42.2283 73.444 42.6923 73.108C43.1563 72.772 43.7023 72.604 44.3303 72.604C45.2703 72.604 46.0183 72.982 46.5743 73.738C47.1343 74.49 47.4143 75.604 47.4143 77.08C47.4143 78.548 47.1363 79.658 46.5803 80.41C46.0243 81.158 45.2703 81.532 44.3183 81.532ZM44.3303 80.572C44.9503 80.572 45.4183 80.3 45.7343 79.756C46.0543 79.208 46.2143 78.318 46.2143 77.086C46.2143 75.83 46.0523 74.926 45.7283 74.374C45.4083 73.818 44.9403 73.54 44.3243 73.54C43.7123 73.54 43.2403 73.82 42.9083 74.38C42.5803 74.936 42.4163 75.838 42.4163 77.086C42.4163 78.314 42.5803 79.202 42.9083 79.75C43.2363 80.298 43.7103 80.572 44.3303 80.572Z" fill="#919EAB"/>
<path d="M37.1338 125.932C36.4618 125.932 35.8778 125.758 35.3818 125.41C34.8898 125.062 34.5078 124.566 34.2358 123.922C33.9678 123.274 33.8338 122.498 33.8338 121.594C33.8338 120.666 33.9638 119.858 34.2238 119.17C34.4878 118.482 34.8718 117.95 35.3758 117.574C35.8798 117.194 36.4978 117.004 37.2298 117.004C37.7098 117.004 38.1518 117.094 38.5558 117.274C38.9638 117.454 39.3018 117.712 39.5698 118.048C39.8378 118.384 40.0038 118.79 40.0678 119.266H39.0238C38.9078 118.854 38.6978 118.528 38.3938 118.288C38.0898 118.048 37.7078 117.928 37.2478 117.928C36.7358 117.928 36.3078 118.074 35.9638 118.366C35.6238 118.654 35.3758 119.078 35.2198 119.638C35.0638 120.194 35.0098 120.878 35.0578 121.69C35.1658 121.398 35.3298 121.142 35.5498 120.922C35.7738 120.698 36.0338 120.526 36.3298 120.406C36.6258 120.282 36.9458 120.22 37.2898 120.22C37.8618 120.22 38.3618 120.332 38.7898 120.556C39.2178 120.776 39.5518 121.092 39.7918 121.504C40.0318 121.912 40.1518 122.4 40.1518 122.968C40.1518 123.548 40.0278 124.062 39.7798 124.51C39.5358 124.954 39.1878 125.302 38.7358 125.554C38.2838 125.806 37.7498 125.932 37.1338 125.932ZM37.1218 125.014C37.4778 125.014 37.7938 124.93 38.0698 124.762C38.3458 124.594 38.5618 124.36 38.7178 124.06C38.8778 123.76 38.9578 123.414 38.9578 123.022C38.9578 122.626 38.8858 122.286 38.7418 122.002C38.6018 121.718 38.3938 121.5 38.1178 121.348C37.8418 121.196 37.5058 121.12 37.1098 121.12C36.7938 121.12 36.4898 121.196 36.1978 121.348C35.9098 121.496 35.6738 121.692 35.4898 121.936C35.3098 122.18 35.2198 122.45 35.2198 122.746C35.2158 123.186 35.2918 123.578 35.4478 123.922C35.6078 124.262 35.8318 124.53 36.1198 124.726C36.4078 124.918 36.7418 125.014 37.1218 125.014ZM44.3183 125.932C43.3703 125.932 42.6183 125.56 42.0623 124.816C41.5063 124.068 41.2283 122.962 41.2283 121.498C41.2283 120.51 41.3563 119.682 41.6123 119.014C41.8683 118.346 42.2283 117.844 42.6923 117.508C43.1563 117.172 43.7023 117.004 44.3303 117.004C45.2703 117.004 46.0183 117.382 46.5743 118.138C47.1343 118.89 47.4143 120.004 47.4143 121.48C47.4143 122.948 47.1363 124.058 46.5803 124.81C46.0243 125.558 45.2703 125.932 44.3183 125.932ZM44.3303 124.972C44.9503 124.972 45.4183 124.7 45.7343 124.156C46.0543 123.608 46.2143 122.718 46.2143 121.486C46.2143 120.23 46.0523 119.326 45.7283 118.774C45.4083 118.218 44.9403 117.94 44.3243 117.94C43.7123 117.94 43.2403 118.22 42.9083 118.78C42.5803 119.336 42.4163 120.238 42.4163 121.486C42.4163 122.714 42.5803 123.602 42.9083 124.15C43.2363 124.698 43.7103 124.972 44.3303 124.972Z" fill="#919EAB"/>
<path d="M37.7495 170.2V167.986H33.6635V166.972L37.7075 161.524H38.8355V167.008H40.2755V167.986H38.8355V170.2H37.7495ZM34.7255 167.008H37.7255V162.982L34.7255 167.008ZM44.3183 170.332C43.3703 170.332 42.6183 169.96 42.0623 169.216C41.5063 168.468 41.2283 167.362 41.2283 165.898C41.2283 164.91 41.3563 164.082 41.6123 163.414C41.8683 162.746 42.2283 162.244 42.6923 161.908C43.1563 161.572 43.7023 161.404 44.3303 161.404C45.2703 161.404 46.0183 161.782 46.5743 162.538C47.1343 163.29 47.4143 164.404 47.4143 165.88C47.4143 167.348 47.1363 168.458 46.5803 169.21C46.0243 169.958 45.2703 170.332 44.3183 170.332ZM44.3303 169.372C44.9503 169.372 45.4183 169.1 45.7343 168.556C46.0543 168.008 46.2143 167.118 46.2143 165.886C46.2143 164.63 46.0523 163.726 45.7283 163.174C45.4083 162.618 44.9403 162.34 44.3243 162.34C43.7123 162.34 43.2403 162.62 42.9083 163.18C42.5803 163.736 42.4163 164.638 42.4163 165.886C42.4163 167.114 42.5803 168.002 42.9083 168.55C43.2363 169.098 43.7103 169.372 44.3303 169.372Z" fill="#919EAB"/>
<path d="M34.2479 214.6V213.922V213.568C34.2479 213.124 34.3299 212.74 34.4939 212.416C34.6619 212.092 34.8819 211.81 35.1539 211.57C35.4299 211.326 35.7299 211.108 36.0539 210.916C36.3819 210.724 36.7079 210.54 37.0319 210.364C37.3599 210.184 37.6599 209.998 37.9319 209.806C38.2039 209.61 38.4219 209.39 38.5859 209.146C38.7539 208.898 38.8379 208.606 38.8379 208.27C38.8379 207.83 38.6819 207.472 38.3699 207.196C38.0619 206.92 37.6439 206.782 37.1159 206.782C36.5479 206.782 36.0919 206.942 35.7479 207.262C35.4039 207.582 35.2099 208.008 35.1659 208.54H34.0619C34.0739 208.04 34.1979 207.584 34.4339 207.172C34.6699 206.756 35.0159 206.424 35.4719 206.176C35.9279 205.928 36.4899 205.804 37.1579 205.804C37.7379 205.804 38.2419 205.908 38.6699 206.116C39.0979 206.32 39.4279 206.608 39.6599 206.98C39.8959 207.348 40.0139 207.778 40.0139 208.27C40.0139 208.718 39.9319 209.102 39.7679 209.422C39.6039 209.742 39.3859 210.02 39.1139 210.256C38.8459 210.488 38.5519 210.696 38.2319 210.88C37.9119 211.064 37.5899 211.242 37.2659 211.414C36.9419 211.582 36.6459 211.76 36.3779 211.948C36.1099 212.132 35.8939 212.344 35.7299 212.584C35.5659 212.824 35.4839 213.11 35.4839 213.442V213.616H40.0619V214.6H34.2479ZM44.3183 214.732C43.3703 214.732 42.6183 214.36 42.0623 213.616C41.5063 212.868 41.2283 211.762 41.2283 210.298C41.2283 209.31 41.3563 208.482 41.6123 207.814C41.8683 207.146 42.2283 206.644 42.6923 206.308C43.1563 205.972 43.7023 205.804 44.3303 205.804C45.2703 205.804 46.0183 206.182 46.5743 206.938C47.1343 207.69 47.4143 208.804 47.4143 210.28C47.4143 211.748 47.1363 212.858 46.5803 213.61C46.0243 214.358 45.2703 214.732 44.3183 214.732ZM44.3303 213.772C44.9503 213.772 45.4183 213.5 45.7343 212.956C46.0543 212.408 46.2143 211.518 46.2143 210.286C46.2143 209.03 46.0523 208.126 45.7283 207.574C45.4083 207.018 44.9403 206.74 44.3243 206.74C43.7123 206.74 43.2403 207.02 42.9083 207.58C42.5803 208.136 42.4163 209.038 42.4163 210.286C42.4163 211.514 42.5803 212.402 42.9083 212.95C43.2363 213.498 43.7103 213.772 44.3303 213.772Z" fill="#919EAB"/>
<path d="M44.3183 259.132C43.3703 259.132 42.6183 258.76 42.0623 258.016C41.5063 257.268 41.2283 256.162 41.2283 254.698C41.2283 253.71 41.3563 252.882 41.6123 252.214C41.8683 251.546 42.2283 251.044 42.6923 250.708C43.1563 250.372 43.7023 250.204 44.3303 250.204C45.2703 250.204 46.0183 250.582 46.5743 251.338C47.1343 252.09 47.4143 253.204 47.4143 254.68C47.4143 256.148 47.1363 257.258 46.5803 258.01C46.0243 258.758 45.2703 259.132 44.3183 259.132ZM44.3303 258.172C44.9503 258.172 45.4183 257.9 45.7343 257.356C46.0543 256.808 46.2143 255.918 46.2143 254.686C46.2143 253.43 46.0523 252.526 45.7283 251.974C45.4083 251.418 44.9403 251.14 44.3243 251.14C43.7123 251.14 43.2403 251.42 42.9083 251.98C42.5803 252.536 42.4163 253.438 42.4163 254.686C42.4163 255.914 42.5803 256.802 42.9083 257.35C43.2363 257.898 43.7103 258.172 44.3303 258.172Z" fill="#919EAB"/>
<path d="M64 32.5L688 32.5" stroke="#919EAB" stroke-opacity="0.2" stroke-linecap="square" stroke-dasharray="2 3"/>
<path d="M64 76.9L688 76.9" stroke="#919EAB" stroke-opacity="0.2" stroke-linecap="square" stroke-dasharray="2 3"/>
<path d="M64 121.3L688 121.3" stroke="#919EAB" stroke-opacity="0.2" stroke-linecap="square" stroke-dasharray="2 3"/>
<path d="M64 165.7L688 165.7" stroke="#919EAB" stroke-opacity="0.2" stroke-linecap="square" stroke-dasharray="2 3"/>
<path d="M64 210.1L688 210.1" stroke="#919EAB" stroke-opacity="0.2" stroke-linecap="square" stroke-dasharray="2 3"/>
<path d="M64 254.5L688 254.5" stroke="#919EAB" stroke-opacity="0.2" stroke-linecap="square" stroke-dasharray="2 3"/>
<path d="M66.2907 289.12C65.9827 289.12 65.6927 289.084 65.4207 289.012C65.1527 288.94 64.9747 288.886 64.8867 288.85L64.9647 287.788C65.0887 287.832 65.2307 287.888 65.3907 287.956C65.5547 288.02 65.7567 288.052 65.9967 288.052C66.3887 288.052 66.6567 287.944 66.8007 287.728C66.9487 287.512 67.0227 287.148 67.0227 286.636V280.324H68.1327V286.954C68.1327 287.414 68.0807 287.806 67.9767 288.13C67.8727 288.454 67.6867 288.7 67.4187 288.868C67.1547 289.036 66.7787 289.12 66.2907 289.12ZM71.7107 289.12C71.3067 289.12 70.9507 289.05 70.6427 288.91C70.3387 288.766 70.0987 288.56 69.9227 288.292C69.7507 288.024 69.6647 287.7 69.6647 287.32C69.6647 286.632 69.9047 286.12 70.3847 285.784C70.8647 285.448 71.6347 285.268 72.6947 285.244L73.7987 285.214V284.728C73.7987 284.348 73.6847 284.048 73.4567 283.828C73.2287 283.604 72.8767 283.492 72.4007 283.492C72.0447 283.496 71.7307 283.58 71.4587 283.744C71.1867 283.908 71.0127 284.176 70.9367 284.548H69.9587C69.9827 284.144 70.0947 283.804 70.2947 283.528C70.4987 283.248 70.7847 283.036 71.1527 282.892C71.5207 282.748 71.9547 282.676 72.4547 282.676C72.9947 282.676 73.4427 282.752 73.7987 282.904C74.1587 283.056 74.4267 283.28 74.6027 283.576C74.7827 283.872 74.8727 284.236 74.8727 284.668V289H73.9247L73.8407 287.836C73.6047 288.32 73.3007 288.656 72.9287 288.844C72.5607 289.028 72.1547 289.12 71.7107 289.12ZM72.0407 288.322C72.2527 288.322 72.4607 288.284 72.6647 288.208C72.8727 288.132 73.0607 288.03 73.2287 287.902C73.4007 287.77 73.5387 287.624 73.6427 287.464C73.7467 287.3 73.7987 287.132 73.7987 286.96V285.898L72.8807 285.916C72.4047 285.924 72.0087 285.972 71.6927 286.06C71.3767 286.148 71.1387 286.286 70.9787 286.474C70.8187 286.662 70.7387 286.908 70.7387 287.212C70.7387 287.56 70.8607 287.832 71.1047 288.028C71.3487 288.224 71.6607 288.322 72.0407 288.322ZM76.6035 289V282.796H77.6775V283.696C77.7775 283.524 77.9155 283.362 78.0915 283.21C78.2715 283.058 78.4875 282.936 78.7395 282.844C78.9955 282.752 79.2895 282.706 79.6215 282.706C80.0135 282.706 80.3735 282.784 80.7015 282.94C81.0335 283.096 81.2975 283.34 81.4935 283.672C81.6935 284 81.7935 284.424 81.7935 284.944V289H80.6835V285.052C80.6835 284.568 80.5555 284.21 80.2995 283.978C80.0475 283.742 79.7195 283.624 79.3155 283.624C79.0355 283.624 78.7735 283.67 78.5295 283.762C78.2855 283.85 78.0875 283.986 77.9355 284.17C77.7835 284.35 77.7075 284.578 77.7075 284.854V289H76.6035Z" fill="#919EAB"/>
<path d="M164.526 289V280.324H169.932L169.926 281.296H165.666V284.164H169.494V285.124H165.666V289H164.526ZM173.869 289.12C173.293 289.12 172.785 288.994 172.345 288.742C171.905 288.49 171.561 288.128 171.313 287.656C171.065 287.184 170.941 286.618 170.941 285.958C170.941 285.306 171.053 284.734 171.277 284.242C171.501 283.75 171.825 283.366 172.249 283.09C172.677 282.814 173.191 282.676 173.791 282.676C174.375 282.676 174.869 282.802 175.273 283.054C175.677 283.306 175.983 283.662 176.191 284.122C176.403 284.578 176.509 285.12 176.509 285.748V286.156H172.063C172.063 286.548 172.127 286.904 172.255 287.224C172.387 287.54 172.585 287.792 172.849 287.98C173.113 288.168 173.447 288.262 173.851 288.262C174.247 288.262 174.587 288.17 174.871 287.986C175.159 287.802 175.343 287.536 175.423 287.188H176.467C176.395 287.608 176.227 287.962 175.963 288.25C175.703 288.538 175.389 288.756 175.021 288.904C174.657 289.048 174.273 289.12 173.869 289.12ZM172.069 285.406H175.441C175.441 285.05 175.381 284.73 175.261 284.446C175.141 284.158 174.957 283.932 174.709 283.768C174.465 283.6 174.157 283.516 173.785 283.516C173.397 283.516 173.075 283.61 172.819 283.798C172.563 283.982 172.373 284.22 172.249 284.512C172.125 284.8 172.065 285.098 172.069 285.406ZM181.11 289.12C180.746 289.12 180.438 289.072 180.186 288.976C179.938 288.88 179.734 288.758 179.574 288.61C179.414 288.458 179.29 288.304 179.202 288.148C179.114 287.988 179.05 287.848 179.01 287.728L178.89 289H178.044V280.084H179.16V283.78C179.212 283.676 179.29 283.562 179.394 283.438C179.502 283.314 179.64 283.194 179.808 283.078C179.976 282.962 180.174 282.866 180.402 282.79C180.634 282.714 180.898 282.676 181.194 282.676C181.97 282.676 182.586 282.946 183.042 283.486C183.502 284.026 183.732 284.822 183.732 285.874C183.732 286.526 183.634 287.096 183.438 287.584C183.242 288.068 182.95 288.446 182.562 288.718C182.174 288.986 181.69 289.12 181.11 289.12ZM180.912 288.268C181.416 288.268 181.826 288.074 182.142 287.686C182.458 287.294 182.616 286.672 182.616 285.82C182.616 285.096 182.468 284.536 182.172 284.14C181.88 283.74 181.452 283.54 180.888 283.54C180.476 283.54 180.144 283.63 179.892 283.81C179.644 283.986 179.46 284.244 179.34 284.584C179.224 284.924 179.164 285.336 179.16 285.82C179.16 286.688 179.294 287.314 179.562 287.698C179.834 288.078 180.284 288.268 180.912 288.268Z" fill="#919EAB"/>
<path d="M265.856 289V280.324H267.392L270.008 287.488L272.66 280.324H274.19V289H273.044V281.986L270.53 289H269.492L266.996 282.052V289H265.856ZM277.961 289.12C277.557 289.12 277.201 289.05 276.893 288.91C276.589 288.766 276.349 288.56 276.173 288.292C276.001 288.024 275.915 287.7 275.915 287.32C275.915 286.632 276.155 286.12 276.635 285.784C277.115 285.448 277.885 285.268 278.945 285.244L280.049 285.214V284.728C280.049 284.348 279.935 284.048 279.707 283.828C279.479 283.604 279.127 283.492 278.651 283.492C278.295 283.496 277.981 283.58 277.709 283.744C277.437 283.908 277.263 284.176 277.187 284.548H276.209C276.233 284.144 276.345 283.804 276.545 283.528C276.749 283.248 277.035 283.036 277.403 282.892C277.771 282.748 278.205 282.676 278.705 282.676C279.245 282.676 279.693 282.752 280.049 282.904C280.409 283.056 280.677 283.28 280.853 283.576C281.033 283.872 281.123 284.236 281.123 284.668V289H280.175L280.091 287.836C279.855 288.32 279.551 288.656 279.179 288.844C278.811 289.028 278.405 289.12 277.961 289.12ZM278.291 288.322C278.503 288.322 278.711 288.284 278.915 288.208C279.123 288.132 279.311 288.03 279.479 287.902C279.651 287.77 279.789 287.624 279.893 287.464C279.997 287.3 280.049 287.132 280.049 286.96V285.898L279.131 285.916C278.655 285.924 278.259 285.972 277.943 286.06C277.627 286.148 277.389 286.286 277.229 286.474C277.069 286.662 276.989 286.908 276.989 287.212C276.989 287.56 277.111 287.832 277.355 288.028C277.599 288.224 277.911 288.322 278.291 288.322ZM282.854 289V282.796H283.91V283.99C284.014 283.694 284.16 283.45 284.348 283.258C284.536 283.062 284.75 282.916 284.99 282.82C285.234 282.724 285.486 282.676 285.746 282.676C285.838 282.676 285.928 282.682 286.016 282.694C286.104 282.706 286.172 282.726 286.22 282.754V283.828C286.16 283.8 286.082 283.782 285.986 283.774C285.894 283.762 285.816 283.756 285.752 283.756C285.504 283.74 285.272 283.756 285.056 283.804C284.84 283.848 284.65 283.926 284.486 284.038C284.322 284.15 284.192 284.298 284.096 284.482C284.004 284.662 283.958 284.882 283.958 285.142V289H282.854Z" fill="#919EAB"/>
<path d="M367.82 289L370.958 280.324H372.212L375.35 289H374.216L373.364 286.624H369.806L368.948 289H367.82ZM370.1 285.604H373.058L371.582 281.41L370.1 285.604ZM376.76 290.932V282.796H377.864L377.876 283.876C377.948 283.748 378.04 283.614 378.152 283.474C378.268 283.334 378.408 283.204 378.572 283.084C378.74 282.964 378.934 282.866 379.154 282.79C379.378 282.714 379.632 282.676 379.916 282.676C380.412 282.676 380.848 282.79 381.224 283.018C381.604 283.242 381.9 283.586 382.112 284.05C382.324 284.514 382.43 285.102 382.43 285.814C382.43 286.526 382.326 287.128 382.118 287.62C381.914 288.108 381.618 288.48 381.23 288.736C380.842 288.992 380.374 289.12 379.826 289.12C379.55 289.12 379.304 289.08 379.088 289C378.876 288.924 378.69 288.824 378.53 288.7C378.374 288.572 378.242 288.436 378.134 288.292C378.03 288.148 377.944 288.01 377.876 287.878V290.932H376.76ZM379.616 288.256C380.128 288.256 380.546 288.062 380.87 287.674C381.194 287.282 381.356 286.674 381.356 285.85C381.356 285.142 381.208 284.58 380.912 284.164C380.616 283.748 380.184 283.54 379.616 283.54C379.04 283.54 378.604 283.754 378.308 284.182C378.012 284.606 377.864 285.162 377.864 285.85C377.864 286.294 377.93 286.698 378.062 287.062C378.194 287.426 378.39 287.716 378.65 287.932C378.91 288.148 379.232 288.256 379.616 288.256ZM383.908 289V282.796H384.964V283.99C385.068 283.694 385.214 283.45 385.402 283.258C385.59 283.062 385.804 282.916 386.044 282.82C386.288 282.724 386.54 282.676 386.8 282.676C386.892 282.676 386.982 282.682 387.07 282.694C387.158 282.706 387.226 282.726 387.274 282.754V283.828C387.214 283.8 387.136 283.782 387.04 283.774C386.948 283.762 386.87 283.756 386.806 283.756C386.558 283.74 386.326 283.756 386.11 283.804C385.894 283.848 385.704 283.926 385.54 284.038C385.376 284.15 385.246 284.298 385.15 284.482C385.058 284.662 385.012 284.882 385.012 285.142V289H383.908Z" fill="#919EAB"/>
<path d="M469.755 289V280.324H471.291L473.907 287.488L476.559 280.324H478.089V289H476.943V281.986L474.429 289H473.391L470.895 282.052V289H469.755ZM481.861 289.12C481.457 289.12 481.101 289.05 480.793 288.91C480.489 288.766 480.249 288.56 480.073 288.292C479.901 288.024 479.815 287.7 479.815 287.32C479.815 286.632 480.055 286.12 480.535 285.784C481.015 285.448 481.785 285.268 482.845 285.244L483.949 285.214V284.728C483.949 284.348 483.835 284.048 483.607 283.828C483.379 283.604 483.027 283.492 482.551 283.492C482.195 283.496 481.881 283.58 481.609 283.744C481.337 283.908 481.163 284.176 481.087 284.548H480.109C480.133 284.144 480.245 283.804 480.445 283.528C480.649 283.248 480.935 283.036 481.303 282.892C481.671 282.748 482.105 282.676 482.605 282.676C483.145 282.676 483.593 282.752 483.949 282.904C484.309 283.056 484.577 283.28 484.753 283.576C484.933 283.872 485.023 284.236 485.023 284.668V289H484.075L483.991 287.836C483.755 288.32 483.451 288.656 483.079 288.844C482.711 289.028 482.305 289.12 481.861 289.12ZM482.191 288.322C482.403 288.322 482.611 288.284 482.815 288.208C483.023 288.132 483.211 288.03 483.379 287.902C483.551 287.77 483.689 287.624 483.793 287.464C483.897 287.3 483.949 287.132 483.949 286.96V285.898L483.031 285.916C482.555 285.924 482.159 285.972 481.843 286.06C481.527 286.148 481.289 286.286 481.129 286.474C480.969 286.662 480.889 286.908 480.889 287.212C480.889 287.56 481.011 287.832 481.255 288.028C481.499 288.224 481.811 288.322 482.191 288.322ZM487.172 290.98C486.808 290.98 486.558 290.954 486.422 290.902C486.286 290.85 486.218 290.824 486.218 290.824V290.104L486.854 290.116C487.082 290.124 487.272 290.108 487.424 290.068C487.576 290.028 487.698 289.974 487.79 289.906C487.882 289.838 487.952 289.762 488 289.678C488.052 289.594 488.094 289.514 488.126 289.438L488.342 288.85L485.918 282.796H487.04L488.87 287.584L490.688 282.796H491.774L489.164 289.468C489 289.86 488.818 290.166 488.618 290.386C488.422 290.606 488.202 290.76 487.958 290.848C487.718 290.936 487.456 290.98 487.172 290.98Z" fill="#919EAB"/>
<path d="M574.758 289.12C574.45 289.12 574.16 289.084 573.888 289.012C573.62 288.94 573.442 288.886 573.354 288.85L573.432 287.788C573.556 287.832 573.698 287.888 573.858 287.956C574.022 288.02 574.224 288.052 574.464 288.052C574.856 288.052 575.124 287.944 575.268 287.728C575.416 287.512 575.49 287.148 575.49 286.636V280.324H576.6V286.954C576.6 287.414 576.548 287.806 576.444 288.13C576.34 288.454 576.154 288.7 575.886 288.868C575.622 289.036 575.246 289.12 574.758 289.12ZM580.718 289.12C580.394 289.116 580.088 289.07 579.8 288.982C579.516 288.89 579.264 288.756 579.044 288.58C578.824 288.404 578.65 288.186 578.522 287.926C578.398 287.662 578.336 287.356 578.336 287.008V282.796H579.446V286.894C579.446 287.298 579.57 287.626 579.818 287.878C580.07 288.13 580.448 288.256 580.952 288.256C581.408 288.256 581.774 288.138 582.05 287.902C582.33 287.662 582.47 287.306 582.47 286.834V282.796H583.574V289H582.692L582.578 287.812C582.502 288.124 582.372 288.376 582.188 288.568C582.008 288.76 581.79 288.902 581.534 288.994C581.282 289.082 581.01 289.124 580.718 289.12ZM585.47 289V282.796H586.544V283.696C586.644 283.524 586.782 283.362 586.958 283.21C587.138 283.058 587.354 282.936 587.606 282.844C587.862 282.752 588.156 282.706 588.488 282.706C588.88 282.706 589.24 282.784 589.568 282.94C589.9 283.096 590.164 283.34 590.36 283.672C590.56 284 590.66 284.424 590.66 284.944V289H589.55V285.052C589.55 284.568 589.422 284.21 589.166 283.978C588.914 283.742 588.586 283.624 588.182 283.624C587.902 283.624 587.64 283.67 587.396 283.762C587.152 283.85 586.954 283.986 586.802 284.17C586.65 284.35 586.574 284.578 586.574 284.854V289H585.47Z" fill="#919EAB"/>
<path d="M674.238 289.12C673.93 289.12 673.64 289.084 673.368 289.012C673.1 288.94 672.922 288.886 672.834 288.85L672.912 287.788C673.036 287.832 673.178 287.888 673.338 287.956C673.502 288.02 673.704 288.052 673.944 288.052C674.336 288.052 674.604 287.944 674.748 287.728C674.896 287.512 674.97 287.148 674.97 286.636V280.324H676.08V286.954C676.08 287.414 676.028 287.806 675.924 288.13C675.82 288.454 675.634 288.7 675.366 288.868C675.102 289.036 674.726 289.12 674.238 289.12ZM680.198 289.12C679.874 289.116 679.568 289.07 679.28 288.982C678.996 288.89 678.744 288.756 678.524 288.58C678.304 288.404 678.13 288.186 678.002 287.926C677.878 287.662 677.816 287.356 677.816 287.008V282.796H678.926V286.894C678.926 287.298 679.05 287.626 679.298 287.878C679.55 288.13 679.928 288.256 680.432 288.256C680.888 288.256 681.254 288.138 681.53 287.902C681.81 287.662 681.95 287.306 681.95 286.834V282.796H683.054V289H682.172L682.058 287.812C681.982 288.124 681.852 288.376 681.668 288.568C681.488 288.76 681.27 288.902 681.014 288.994C680.762 289.082 680.49 289.124 680.198 289.12ZM686.515 289.078C686.179 289.078 685.907 289.032 685.699 288.94C685.495 288.848 685.337 288.724 685.225 288.568C685.117 288.412 685.043 288.234 685.003 288.034C684.967 287.83 684.949 287.62 684.949 287.404V280.084H686.041V287.296C686.041 287.608 686.101 287.842 686.221 287.998C686.345 288.154 686.517 288.24 686.737 288.256L687.073 288.262V288.982C686.981 289.01 686.885 289.032 686.785 289.048C686.685 289.068 686.595 289.078 686.515 289.078Z" fill="#919EAB"/>
<path d="M68 98C68 95.7909 69.7909 94 72 94H84C86.2091 94 88 95.7909 88 98V122H68V98Z" fill="#00B8D9"/>
<path d="M68 122H88V162H68V122Z" fill="#FFAB00"/>
<rect x="68" y="162" width="20" height="92" fill="#007779"/>
<path d="M167.333 173C167.333 170.791 169.124 169 171.333 169H183.333C185.542 169 187.333 170.791 187.333 173V184H167.333V173Z" fill="#00B8D9"/>
<path d="M167.333 184H187.333V205H167.333V184Z" fill="#FFAB00"/>
<rect x="167.333" y="205" width="20" height="49" fill="#007779"/>
<path d="M266.667 154C266.667 151.791 268.458 150 270.667 150H282.667C284.876 150 286.667 151.791 286.667 154V169H266.667V154Z" fill="#00B8D9"/>
<path d="M266.667 169H286.667V195H266.667V169Z" fill="#FFAB00"/>
<rect x="266.667" y="195" width="20" height="59" fill="#007779"/>
<path d="M366 98C366 95.7909 367.791 94 370 94H382C384.209 94 386 95.7909 386 98V122H366V98Z" fill="#00B8D9"/>
<path d="M366 122H386V162H366V122Z" fill="#FFAB00"/>
<rect x="366" y="162" width="20" height="92" fill="#007779"/>
<path d="M465.333 122C465.333 119.791 467.124 118 469.333 118H481.333C483.543 118 485.333 119.791 485.333 122V142H465.333V122Z" fill="#00B8D9"/>
<path d="M465.333 142H485.333V177H465.333V142Z" fill="#FFAB00"/>
<rect x="465.333" y="177" width="20" height="77" fill="#007779"/>
<path d="M564.667 58C564.667 55.7909 566.458 54 568.667 54H580.667C582.876 54 584.667 55.7909 584.667 58V84H564.667V58Z" fill="#00B8D9"/>
<path d="M564.667 84H584.667V127H564.667V84Z" fill="#FFAB00"/>
<rect x="564.667" y="127" width="20" height="127" fill="#007779"/>
<path d="M664 139C664 136.791 665.791 135 668 135H680C682.209 135 684 136.791 684 139V156H664V139Z" fill="#00B8D9"/>
<path d="M664 156H684V186H664V156Z" fill="#FFAB00"/>
<rect x="664" y="186" width="20" height="68" fill="#007779"/>
</svg>
