<svg width="240" height="240" viewBox="0 0 240 240" fill="none" xmlns="http://www.w3.org/2000/svg">
<path d="M240 120C240 186.274 186.274 240 120 240C53.7258 240 0 186.274 0 120C0 53.7258 53.7258 0 120 0C186.274 0 240 53.7258 240 120ZM31.2 120C31.2 169.043 70.9571 208.8 120 208.8C169.043 208.8 208.8 169.043 208.8 120C208.8 70.9571 169.043 31.2 120 31.2C70.9571 31.2 31.2 70.9571 31.2 120Z" fill="#007779"/>
<path d="M184.302 18.6823C205.698 32.2615 222.246 52.2658 231.574 75.828C240.903 99.3901 242.532 125.301 236.229 149.846L206.01 142.086C210.674 123.922 209.468 104.749 202.565 87.3127C195.662 69.8767 183.417 55.0735 167.583 45.0249L184.302 18.6823Z" fill="#11FBFF"/>
<path d="M236.289 149.611C231.616 167.963 222.666 184.948 210.171 199.178C197.676 213.408 181.991 224.479 164.397 231.485C146.804 238.491 127.802 241.234 108.945 239.49C90.0883 237.745 71.9122 231.562 55.9028 221.447L72.568 195.071C84.415 202.556 97.8654 207.131 111.819 208.422C125.773 209.713 139.835 207.684 152.854 202.499C165.873 197.314 177.48 189.122 186.727 178.592C195.973 168.061 202.596 155.492 206.054 141.912L236.289 149.611Z" fill="#90FDFF"/>
<path d="M55.9602 221.484C33.7566 207.472 16.7609 186.566 7.57851 161.969L36.8081 151.057C43.6031 169.259 56.1799 184.729 72.6105 195.098L55.9602 221.484Z" fill="#003839"/>
<path d="M106.894 106V97.411H103.744V95.878H111.64V97.411H108.602V106H106.894ZM114.919 106.14C114.228 106.14 113.626 105.993 113.113 105.699C112.6 105.4 112.201 104.973 111.916 104.418C111.636 103.863 111.496 103.195 111.496 102.416C111.496 101.66 111.634 100.997 111.909 100.428C112.184 99.8587 112.576 99.4153 113.085 99.098C113.598 98.7807 114.212 98.622 114.926 98.622C115.617 98.622 116.216 98.7737 116.725 99.077C117.234 99.3803 117.626 99.8143 117.901 100.379C118.181 100.944 118.321 101.623 118.321 102.416C118.321 103.149 118.188 103.795 117.922 104.355C117.661 104.91 117.276 105.347 116.767 105.664C116.263 105.981 115.647 106.14 114.919 106.14ZM114.926 104.845C115.318 104.845 115.64 104.738 115.892 104.523C116.149 104.308 116.34 104.014 116.466 103.641C116.592 103.268 116.655 102.843 116.655 102.367C116.655 101.924 116.599 101.515 116.487 101.142C116.375 100.769 116.191 100.47 115.934 100.246C115.682 100.017 115.346 99.903 114.926 99.903C114.529 99.903 114.2 100.008 113.939 100.218C113.682 100.423 113.491 100.713 113.365 101.086C113.239 101.455 113.176 101.882 113.176 102.367C113.176 102.806 113.232 103.214 113.344 103.592C113.456 103.965 113.64 104.269 113.897 104.502C114.154 104.731 114.497 104.845 114.926 104.845ZM122.511 106.056C121.937 106.056 121.491 105.981 121.174 105.832C120.861 105.678 120.644 105.461 120.523 105.181C120.401 104.901 120.341 104.567 120.341 104.18V99.966H119.165V98.762H120.39L120.817 96.613H122.042V98.755H123.659V99.966H122.042L122.049 104.117C122.049 104.332 122.072 104.49 122.119 104.593C122.17 104.691 122.249 104.756 122.357 104.789C122.469 104.817 122.616 104.831 122.798 104.831H123.694V105.909C123.596 105.946 123.451 105.979 123.26 106.007C123.073 106.04 122.823 106.056 122.511 106.056ZM127.331 106.14C126.869 106.14 126.454 106.056 126.085 105.888C125.721 105.715 125.434 105.47 125.224 105.153C125.019 104.831 124.916 104.441 124.916 103.984C124.916 103.186 125.203 102.584 125.777 102.178C126.356 101.772 127.275 101.56 128.535 101.541L129.62 101.513V101.023C129.62 100.64 129.506 100.342 129.277 100.127C129.053 99.9077 128.703 99.8003 128.227 99.805C127.873 99.8097 127.551 99.8937 127.261 100.057C126.972 100.216 126.781 100.484 126.687 100.862H125.238C125.266 100.367 125.409 99.9543 125.665 99.623C125.927 99.287 126.284 99.0373 126.736 98.874C127.189 98.706 127.712 98.622 128.304 98.622C128.995 98.622 129.557 98.713 129.991 98.895C130.425 99.077 130.745 99.3407 130.95 99.686C131.156 100.027 131.258 100.44 131.258 100.925V106H129.823L129.683 104.698C129.427 105.244 129.098 105.622 128.696 105.832C128.3 106.037 127.845 106.14 127.331 106.14ZM127.884 104.985C128.094 104.985 128.302 104.948 128.507 104.873C128.713 104.794 128.897 104.689 129.06 104.558C129.228 104.423 129.361 104.273 129.459 104.11C129.562 103.947 129.616 103.776 129.62 103.599V102.458L128.731 102.472C128.293 102.477 127.908 102.523 127.576 102.612C127.25 102.701 126.995 102.843 126.813 103.039C126.631 103.23 126.54 103.487 126.54 103.809C126.54 104.178 126.669 104.467 126.925 104.677C127.182 104.882 127.502 104.985 127.884 104.985ZM135.158 106.105C134.692 106.105 134.318 106.047 134.038 105.93C133.758 105.813 133.548 105.657 133.408 105.461C133.268 105.265 133.177 105.046 133.135 104.803C133.093 104.556 133.072 104.304 133.072 104.047V95.598H134.738V103.851C134.738 104.164 134.801 104.406 134.927 104.579C135.058 104.752 135.268 104.852 135.557 104.88L135.921 104.894V105.965C135.795 106.002 135.667 106.035 135.536 106.063C135.406 106.091 135.28 106.105 135.158 106.105Z" fill="#637381"/>
<path d="M84.7999 141V128.004H81.7039V126.024C82.6959 126.024 83.4959 125.932 84.1039 125.748C84.7199 125.556 85.1799 125.284 85.4839 124.932C85.7879 124.572 85.9679 124.144 86.0239 123.648H88.3519V141H84.7999ZM92.2935 141V139.272V138.384C92.2935 137.504 92.4575 136.744 92.7855 136.104C93.1135 135.456 93.5455 134.896 94.0815 134.424C94.6255 133.944 95.2175 133.524 95.8575 133.164C96.5055 132.804 97.1535 132.464 97.8015 132.144C98.4495 131.824 99.0415 131.504 99.5775 131.184C100.122 130.856 100.558 130.492 100.886 130.092C101.214 129.692 101.378 129.22 101.378 128.676C101.378 127.98 101.134 127.412 100.646 126.972C100.166 126.532 99.5055 126.312 98.6655 126.312C97.7935 126.312 97.0535 126.564 96.4455 127.068C95.8375 127.572 95.4615 128.332 95.3175 129.348H91.9695C91.9855 128.244 92.2415 127.244 92.7375 126.348C93.2415 125.444 93.9935 124.728 94.9935 124.2C95.9935 123.672 97.2495 123.408 98.7615 123.408C100.058 123.408 101.174 123.628 102.11 124.068C103.054 124.508 103.782 125.12 104.294 125.904C104.806 126.688 105.062 127.604 105.062 128.652C105.062 129.524 104.902 130.276 104.582 130.908C104.262 131.54 103.838 132.08 103.31 132.528C102.782 132.976 102.202 133.368 101.57 133.704C100.938 134.04 100.306 134.352 99.6735 134.64C99.0495 134.928 98.4735 135.224 97.9455 135.528C97.4175 135.824 96.9935 136.16 96.6735 136.536C96.3535 136.912 96.1935 137.364 96.1935 137.892V138.048H105.038V141H92.2935ZM107.3 144.36L108.692 141.096L107.468 140.988V137.592H111.008V140.58L108.596 144.36H107.3ZM120.256 141.264C119.176 141.264 118.168 141.056 117.232 140.64C116.296 140.224 115.532 139.64 114.94 138.888C114.348 138.128 114.016 137.24 113.944 136.224H117.28C117.424 136.896 117.744 137.444 118.24 137.868C118.736 138.284 119.36 138.492 120.112 138.492C120.944 138.492 121.672 138.296 122.296 137.904C122.928 137.512 123.4 136.888 123.712 136.032C124.032 135.176 124.144 134.056 124.048 132.672C123.824 133.096 123.512 133.468 123.112 133.788C122.72 134.1 122.26 134.344 121.732 134.52C121.204 134.688 120.616 134.772 119.968 134.772C118.792 134.772 117.748 134.552 116.836 134.112C115.932 133.664 115.22 133.032 114.7 132.216C114.188 131.392 113.932 130.416 113.932 129.288C113.932 128.152 114.204 127.14 114.748 126.252C115.292 125.364 116.052 124.668 117.028 124.164C118.004 123.66 119.148 123.408 120.46 123.408C121.932 123.408 123.2 123.76 124.264 124.464C125.336 125.16 126.156 126.152 126.724 127.44C127.3 128.72 127.588 130.228 127.588 131.964C127.588 134.036 127.292 135.764 126.7 137.148C126.116 138.524 125.276 139.556 124.18 140.244C123.084 140.924 121.776 141.264 120.256 141.264ZM120.568 131.988C121.056 131.988 121.528 131.88 121.984 131.664C122.448 131.44 122.828 131.16 123.124 130.824C123.42 130.488 123.568 130.14 123.568 129.78C123.576 129.004 123.452 128.34 123.196 127.788C122.948 127.228 122.596 126.8 122.14 126.504C121.692 126.208 121.168 126.06 120.568 126.06C120.016 126.06 119.524 126.188 119.092 126.444C118.66 126.7 118.32 127.06 118.072 127.524C117.824 127.988 117.7 128.524 117.7 129.132C117.7 130.036 117.964 130.74 118.492 131.244C119.02 131.74 119.712 131.988 120.568 131.988ZM136.618 141.252C135.226 141.252 134.006 141.048 132.958 140.64C131.91 140.224 131.094 139.636 130.51 138.876C129.926 138.116 129.634 137.22 129.634 136.188C129.634 135.524 129.798 134.896 130.126 134.304C130.454 133.704 130.87 133.2 131.374 132.792C131.878 132.376 132.398 132.112 132.934 132C132.222 131.664 131.618 131.184 131.122 130.56C130.626 129.936 130.378 129.18 130.378 128.292C130.378 127.236 130.65 126.348 131.194 125.628C131.746 124.9 132.494 124.348 133.438 123.972C134.382 123.596 135.442 123.408 136.618 123.408C137.81 123.408 138.874 123.596 139.81 123.972C140.754 124.348 141.498 124.9 142.042 125.628C142.586 126.348 142.858 127.236 142.858 128.292C142.858 129.18 142.614 129.936 142.126 130.56C141.638 131.184 141.038 131.664 140.326 132C140.854 132.112 141.37 132.376 141.874 132.792C142.386 133.2 142.806 133.704 143.134 134.304C143.462 134.896 143.626 135.524 143.626 136.188C143.626 137.22 143.334 138.116 142.75 138.876C142.174 139.636 141.358 140.224 140.302 140.64C139.254 141.048 138.026 141.252 136.618 141.252ZM136.618 138.612C137.642 138.612 138.442 138.384 139.018 137.928C139.602 137.464 139.894 136.852 139.894 136.092C139.894 135.58 139.762 135.132 139.498 134.748C139.234 134.356 138.858 134.048 138.37 133.824C137.882 133.6 137.298 133.488 136.618 133.488C135.954 133.488 135.378 133.6 134.89 133.824C134.402 134.048 134.026 134.356 133.762 134.748C133.498 135.132 133.366 135.58 133.366 136.092C133.366 136.852 133.658 137.464 134.242 137.928C134.826 138.384 135.618 138.612 136.618 138.612ZM136.618 130.644C137.418 130.644 138.074 130.432 138.586 130.008C139.106 129.576 139.366 128.98 139.366 128.22C139.366 127.468 139.106 126.872 138.586 126.432C138.066 125.992 137.41 125.772 136.618 125.772C135.834 125.772 135.182 125.992 134.662 126.432C134.142 126.872 133.882 127.468 133.882 128.22C133.882 128.98 134.142 129.576 134.662 130.008C135.182 130.432 135.834 130.644 136.618 130.644ZM148.493 141C148.557 140.296 148.717 139.408 148.973 138.336C149.229 137.256 149.601 136.064 150.089 134.76C150.585 133.448 151.205 132.088 151.949 130.68C152.701 129.272 153.597 127.884 154.637 126.516H145.337V123.648H158.297V126.516C157.745 127.204 157.189 128.016 156.629 128.952C156.077 129.888 155.545 130.888 155.033 131.952C154.529 133.016 154.073 134.092 153.665 135.18C153.257 136.268 152.929 137.312 152.681 138.312C152.433 139.312 152.297 140.208 152.273 141H148.493Z" fill="#1C252E"/>
</svg>
