<svg width="16" height="16" viewBox="0 0 16 16" fill="none" xmlns="http://www.w3.org/2000/svg">
<path fill-rule="evenodd" clip-rule="evenodd" d="M8.00004 0.833374C7.86743 0.833374 7.74026 0.886052 7.64649 0.979821C7.55272 1.07359 7.50004 1.20077 7.50004 1.33337L7.50004 8.64871L6.38004 7.34137C6.33732 7.29147 6.28518 7.25047 6.22661 7.22072C6.16805 7.19097 6.10419 7.17304 6.0387 7.16796C5.9732 7.16289 5.90734 7.17076 5.84489 7.19113C5.78244 7.21151 5.72461 7.24398 5.67471 7.28671C5.6248 7.32943 5.58381 7.38157 5.55405 7.44013C5.5243 7.4987 5.50637 7.56256 5.50129 7.62805C5.49622 7.69355 5.50409 7.7594 5.52447 7.82186C5.54484 7.88431 5.57732 7.94214 5.62004 7.99204L7.62004 10.3254C7.66698 10.3803 7.72525 10.4243 7.79085 10.4545C7.85645 10.4848 7.92782 10.5004 8.00004 10.5004C8.07226 10.5004 8.14363 10.4848 8.20923 10.4545C8.27483 10.4243 8.3331 10.3803 8.38004 10.3254L10.38 7.99204C10.4228 7.94214 10.4552 7.88431 10.4756 7.82186C10.496 7.7594 10.5039 7.69355 10.4988 7.62805C10.4937 7.56256 10.4758 7.4987 10.446 7.44013C10.4163 7.38157 10.3753 7.32943 10.3254 7.28671C10.2755 7.24398 10.2176 7.21151 10.1552 7.19113C10.0927 7.17076 10.0269 7.16289 9.96139 7.16796C9.89589 7.17304 9.83203 7.19097 9.77347 7.22072C9.7149 7.25047 9.66276 7.29147 9.62004 7.34137L8.50004 8.64804V1.33337C8.50004 1.20077 8.44736 1.07359 8.35359 0.979821C8.25983 0.886052 8.13265 0.833374 8.00004 0.833374Z" fill="#919EAB"/>
<path d="M9.50004 6.00004V6.25204C9.81162 6.14129 10.1511 6.13665 10.4656 6.23885C10.7801 6.34105 11.0519 6.54434 11.2389 6.8171C11.4258 7.08985 11.5174 7.41676 11.4993 7.74694C11.4812 8.07712 11.3544 8.39205 11.1387 8.64271L9.13871 10.976C8.99789 11.1403 8.82322 11.2721 8.62667 11.3624C8.43013 11.4528 8.21637 11.4996 8.00004 11.4996C7.78372 11.4996 7.56995 11.4528 7.37341 11.3624C7.17686 11.2721 7.00219 11.1403 6.86137 10.976L4.86137 8.64271C4.6463 8.3919 4.52004 8.07711 4.50221 7.74719C4.48438 7.41728 4.57598 7.09071 4.76278 6.81818C4.94957 6.54566 5.22112 6.34244 5.53526 6.24007C5.8494 6.1377 6.18854 6.14191 6.50004 6.25204V6.00004L5.33337 6.00004C3.44804 6.00004 2.50471 6.00004 1.91937 6.58604C1.33337 7.17137 1.33337 8.11471 1.33337 10L1.33337 10.6667C1.33337 12.552 1.33337 13.4954 1.91937 14.0807C2.50471 14.6667 3.44804 14.6667 5.33337 14.6667L10.6667 14.6667C12.552 14.6667 13.4954 14.6667 14.0807 14.0807C14.6667 13.4954 14.6667 12.552 14.6667 10.6667V10C14.6667 8.11471 14.6667 7.17137 14.0807 6.58604C13.4954 6.00004 12.552 6.00004 10.6667 6.00004H9.50004Z" fill="#919EAB"/>
</svg>
