<svg width="24" height="24" viewBox="0 0 24 24" fill="none" xmlns="http://www.w3.org/2000/svg">
<path opacity="0.5" d="M5.00001 6.25C4.84664 6.24989 4.69693 6.29679 4.57105 6.38439C4.44517 6.47199 4.34917 6.59608 4.29598 6.73993C4.2428 6.88378 4.235 7.04047 4.27363 7.18889C4.31225 7.33731 4.39545 7.47033 4.51201 7.57L11.512 13.57C11.792 13.81 12.207 13.81 12.488 13.57L19.488 7.57C19.6046 7.47033 19.6878 7.33731 19.7264 7.18889C19.765 7.04047 19.7572 6.88378 19.704 6.73993C19.6509 6.59608 19.5549 6.47199 19.429 6.38439C19.3031 6.29679 19.1534 6.24989 19 6.25H5.00001Z" fill="url(#paint0_linear_317_1948)"/>
<path fill-rule="evenodd" clip-rule="evenodd" d="M4.43 10.512C4.49412 10.4372 4.57237 10.3757 4.66026 10.3312C4.74814 10.2866 4.84395 10.2598 4.94221 10.2522C5.04047 10.2447 5.13924 10.2566 5.23289 10.2873C5.32654 10.318 5.41323 10.3668 5.488 10.431L12 16.012L18.512 10.431C18.5867 10.3661 18.6734 10.3167 18.7673 10.2855C18.8612 10.2543 18.9603 10.242 19.059 10.2492C19.1576 10.2565 19.2538 10.2832 19.3421 10.3278C19.4304 10.3724 19.509 10.4341 19.5734 10.5092C19.6377 10.5843 19.6866 10.6714 19.7172 10.7655C19.7477 10.8596 19.7594 10.9588 19.7514 11.0574C19.7435 11.156 19.7161 11.252 19.6709 11.34C19.6257 11.428 19.5635 11.5061 19.488 11.57L12.488 17.57C12.3521 17.6865 12.179 17.7505 12 17.7505C11.821 17.7505 11.6479 17.6865 11.512 17.57L4.512 11.57C4.43717 11.5059 4.37572 11.4276 4.33115 11.3397C4.28658 11.2518 4.25977 11.156 4.25225 11.0578C4.24473 10.9595 4.25664 10.8607 4.28731 10.7671C4.31798 10.6735 4.36681 10.5868 4.431 10.512H4.43Z" fill="url(#paint1_linear_317_1948)"/>
<defs>
<linearGradient id="paint0_linear_317_1948" x1="4.24945" y1="6.25" x2="10.1303" y2="18.4046" gradientUnits="userSpaceOnUse">
<stop stop-color="#FFAC82"/>
<stop offset="1" stop-color="#FF5630"/>
</linearGradient>
<linearGradient id="paint1_linear_317_1948" x1="4.25006" y1="10.2472" x2="10.1344" y2="22.4059" gradientUnits="userSpaceOnUse">
<stop stop-color="#FFAC82"/>
<stop offset="1" stop-color="#FF5630"/>
</linearGradient>
</defs>
</svg>
