<svg width="14" height="12" viewBox="0 0 14 12" fill="none" xmlns="http://www.w3.org/2000/svg">
<path d="M1.72 1.48467C1.83356 1.05884 2.08458 0.682438 2.43408 0.413959C2.78357 0.14548 3.21196 -4.36472e-05 3.65267 1.87425e-07L10.3467 1.87425e-07C10.7875 -0.00019059 11.216 0.145266 11.5657 0.413756C11.9153 0.682247 12.1664 1.05873 12.28 1.48467L13.6887 6.76867C13.0683 6.27005 12.2959 5.9988 11.5 6L2.5 6C1.70385 5.99865 0.931232 6.26991 0.310667 6.76867L1.72 1.48467Z" fill="#919EAB"/>
<path fill-rule="evenodd" clip-rule="evenodd" d="M2.5 7C2.1717 7 1.84661 7.06466 1.54329 7.1903C1.23998 7.31594 0.96438 7.50009 0.732233 7.73223C0.500087 7.96438 0.315938 8.23998 0.190301 8.54329C0.0646644 8.84661 0 9.1717 0 9.5C0 9.82831 0.0646644 10.1534 0.190301 10.4567C0.315938 10.76 0.500087 11.0356 0.732233 11.2678C0.96438 11.4999 1.23998 11.6841 1.54329 11.8097C1.84661 11.9353 2.1717 12 2.5 12L11.5 12C11.8283 12 12.1534 11.9353 12.4567 11.8097C12.76 11.6841 13.0356 11.4999 13.2678 11.2678C13.4999 11.0356 13.6841 10.76 13.8097 10.4567C13.9353 10.1534 14 9.82831 14 9.5C14 9.1717 13.9353 8.84661 13.8097 8.54329C13.6841 8.23998 13.4999 7.96438 13.2678 7.73223C13.0356 7.50009 12.76 7.31594 12.4567 7.1903C12.1534 7.06466 11.8283 7 11.5 7L2.5 7ZM9.5 10C9.63261 10 9.75979 9.94732 9.85355 9.85355C9.94732 9.75979 10 9.63261 10 9.5C10 9.36739 9.94732 9.24021 9.85355 9.14645C9.75979 9.05268 9.63261 9 9.5 9C9.36739 9 9.24022 9.05268 9.14645 9.14645C9.05268 9.24021 9 9.36739 9 9.5C9 9.63261 9.05268 9.75979 9.14645 9.85355C9.24022 9.94732 9.36739 10 9.5 10ZM12 9.5C12 9.63261 11.9473 9.75979 11.8536 9.85355C11.7598 9.94732 11.6326 10 11.5 10C11.3674 10 11.2402 9.94732 11.1464 9.85355C11.0527 9.75979 11 9.63261 11 9.5C11 9.36739 11.0527 9.24021 11.1464 9.14645C11.2402 9.05268 11.3674 9 11.5 9C11.6326 9 11.7598 9.05268 11.8536 9.14645C11.9473 9.24021 12 9.36739 12 9.5Z" fill="#919EAB"/>
</svg>
