<svg width="14" height="14" viewBox="0 0 14 14" fill="none" xmlns="http://www.w3.org/2000/svg">
<path d="M12.25 7.58336V11.9199C12.25 12.0374 12.2263 12.1537 12.1804 12.2618C12.1345 12.37 12.0672 12.4678 11.9827 12.5494C11.8981 12.631 11.798 12.6947 11.6883 12.7368C11.5786 12.7789 11.4615 12.7984 11.3441 12.7943L11.2665 12.7879L7 12.2547V7.58336H12.25ZM5.83333 7.58336V12.1089L2.772 11.7262C2.48979 11.6909 2.23017 11.5538 2.04197 11.3406C1.85377 11.1273 1.74994 10.8527 1.75 10.5683V7.58336H5.83333ZM11.2665 1.21219C11.3831 1.19763 11.5014 1.20669 11.6144 1.23885C11.7275 1.27101 11.8328 1.3256 11.9243 1.39936C12.0157 1.47313 12.0914 1.56456 12.1468 1.6682C12.2021 1.77185 12.236 1.88558 12.2465 2.00261L12.25 2.08019V6.41669H7V1.74536L11.2665 1.21219ZM5.83333 1.89119V6.41669H1.75V3.43178C1.74994 3.14737 1.85377 2.87273 2.04197 2.6595C2.23017 2.44627 2.48979 2.30913 2.772 2.27386L5.83333 1.89119Z" fill="#637381"/>
</svg>
