<svg width="665" height="270" viewBox="0 0 665 270" fill="none" xmlns="http://www.w3.org/2000/svg">
<path d="M6.72028 13L6.72028 6.094H5.04628V5.368C5.56628 5.368 5.97028 5.33 6.25828 5.254C6.54628 5.178 6.75028 5.062 6.87028 4.906C6.99428 4.75 7.06228 4.556 7.07428 4.324H7.86628L7.86628 13H6.72028ZM13.041 13.132C12.093 13.132 11.341 12.76 10.785 12.016C10.229 11.268 9.951 10.162 9.951 8.698C9.951 7.71 10.079 6.882 10.335 6.214C10.591 5.546 10.951 5.044 11.415 4.708C11.879 4.372 12.425 4.204 13.053 4.204C13.993 4.204 14.741 4.582 15.297 5.338C15.857 6.09 16.137 7.204 16.137 8.68C16.137 10.148 15.859 11.258 15.303 12.01C14.747 12.758 13.993 13.132 13.041 13.132ZM13.053 12.172C13.673 12.172 14.141 11.9 14.457 11.356C14.777 10.808 14.937 9.918 14.937 8.686C14.937 7.43 14.775 6.526 14.451 5.974C14.131 5.418 13.663 5.14 13.047 5.14C12.435 5.14 11.963 5.42 11.631 5.98C11.303 6.536 11.139 7.438 11.139 8.686C11.139 9.914 11.303 10.802 11.631 11.35C11.959 11.898 12.433 12.172 13.053 12.172ZM20.3183 13.132C19.3703 13.132 18.6183 12.76 18.0623 12.016C17.5063 11.268 17.2283 10.162 17.2283 8.698C17.2283 7.71 17.3563 6.882 17.6123 6.214C17.8683 5.546 18.2283 5.044 18.6923 4.708C19.1563 4.372 19.7023 4.204 20.3303 4.204C21.2703 4.204 22.0183 4.582 22.5743 5.338C23.1343 6.09 23.4143 7.204 23.4143 8.68C23.4143 10.148 23.1363 11.258 22.5803 12.01C22.0243 12.758 21.2703 13.132 20.3183 13.132ZM20.3303 12.172C20.9503 12.172 21.4183 11.9 21.7343 11.356C22.0543 10.808 22.2143 9.918 22.2143 8.686C22.2143 7.43 22.0523 6.526 21.7283 5.974C21.4083 5.418 20.9403 5.14 20.3243 5.14C19.7123 5.14 19.2403 5.42 18.9083 5.98C18.5803 6.536 18.4163 7.438 18.4163 8.686C18.4163 9.914 18.5803 10.802 18.9083 11.35C19.2363 11.898 19.7103 12.172 20.3303 12.172Z" fill="#919EAB"/>
<path d="M12.8351 57.532C12.1711 57.532 11.5911 57.43 11.0951 57.226C10.5991 57.018 10.2131 56.728 9.93713 56.356C9.66513 55.984 9.52913 55.548 9.52913 55.048C9.52913 54.712 9.61313 54.39 9.78113 54.082C9.95313 53.774 10.1731 53.512 10.4411 53.296C10.7091 53.08 10.9891 52.944 11.2811 52.888C10.8851 52.72 10.5571 52.476 10.2971 52.156C10.0411 51.836 9.91313 51.44 9.91313 50.968C9.91313 50.464 10.0411 50.036 10.2971 49.684C10.5531 49.332 10.9011 49.064 11.3411 48.88C11.7851 48.696 12.2831 48.604 12.8351 48.604C13.3911 48.604 13.8891 48.696 14.3291 48.88C14.7691 49.064 15.1171 49.332 15.3731 49.684C15.6291 50.036 15.7571 50.464 15.7571 50.968C15.7571 51.44 15.6291 51.836 15.3731 52.156C15.1211 52.476 14.7951 52.72 14.3951 52.888C14.6871 52.944 14.9651 53.08 15.2291 53.296C15.4971 53.512 15.7171 53.774 15.8891 54.082C16.0611 54.39 16.1471 54.712 16.1471 55.048C16.1471 55.548 16.0091 55.984 15.7331 56.356C15.4611 56.728 15.0771 57.018 14.5811 57.226C14.0851 57.43 13.5031 57.532 12.8351 57.532ZM12.8351 56.632C13.4791 56.632 13.9931 56.488 14.3771 56.2C14.7611 55.908 14.9531 55.522 14.9531 55.042C14.9531 54.726 14.8651 54.444 14.6891 54.196C14.5171 53.948 14.2731 53.754 13.9571 53.614C13.6411 53.47 13.2671 53.398 12.8351 53.398C12.4071 53.398 12.0351 53.47 11.7191 53.614C11.4071 53.754 11.1631 53.948 10.9871 54.196C10.8151 54.444 10.7291 54.726 10.7291 55.042C10.7291 55.522 10.9191 55.908 11.2991 56.2C11.6831 56.488 12.1951 56.632 12.8351 56.632ZM12.8351 52.42C13.3631 52.42 13.7911 52.29 14.1191 52.03C14.4511 51.77 14.6171 51.408 14.6171 50.944C14.6171 50.476 14.4511 50.108 14.1191 49.84C13.7871 49.568 13.3591 49.432 12.8351 49.432C12.3111 49.432 11.8831 49.568 11.5511 49.84C11.2191 50.112 11.0531 50.48 11.0531 50.944C11.0531 51.408 11.2191 51.77 11.5511 52.03C11.8831 52.29 12.3111 52.42 12.8351 52.42ZM20.3183 57.532C19.3703 57.532 18.6183 57.16 18.0623 56.416C17.5063 55.668 17.2283 54.562 17.2283 53.098C17.2283 52.11 17.3563 51.282 17.6123 50.614C17.8683 49.946 18.2283 49.444 18.6923 49.108C19.1563 48.772 19.7023 48.604 20.3303 48.604C21.2703 48.604 22.0183 48.982 22.5743 49.738C23.1343 50.49 23.4143 51.604 23.4143 53.08C23.4143 54.548 23.1363 55.658 22.5803 56.41C22.0243 57.158 21.2703 57.532 20.3183 57.532ZM20.3303 56.572C20.9503 56.572 21.4183 56.3 21.7343 55.756C22.0543 55.208 22.2143 54.318 22.2143 53.086C22.2143 51.83 22.0523 50.926 21.7283 50.374C21.4083 49.818 20.9403 49.54 20.3243 49.54C19.7123 49.54 19.2403 49.82 18.9083 50.38C18.5803 50.936 18.4163 51.838 18.4163 53.086C18.4163 54.314 18.5803 55.202 18.9083 55.75C19.2363 56.298 19.7103 56.572 20.3303 56.572Z" fill="#919EAB"/>
<path d="M13.1338 101.932C12.4618 101.932 11.8778 101.758 11.3818 101.41C10.8898 101.062 10.5078 100.566 10.2358 99.922C9.96781 99.274 9.83381 98.498 9.83381 97.594C9.83381 96.666 9.96381 95.858 10.2238 95.17C10.4878 94.482 10.8718 93.95 11.3758 93.574C11.8798 93.194 12.4978 93.004 13.2298 93.004C13.7098 93.004 14.1518 93.094 14.5558 93.274C14.9638 93.454 15.3018 93.712 15.5698 94.048C15.8378 94.384 16.0038 94.79 16.0678 95.266H15.0238C14.9078 94.854 14.6978 94.528 14.3938 94.288C14.0898 94.048 13.7078 93.928 13.2478 93.928C12.7358 93.928 12.3078 94.074 11.9638 94.366C11.6238 94.654 11.3758 95.078 11.2198 95.638C11.0638 96.194 11.0098 96.878 11.0578 97.69C11.1658 97.398 11.3298 97.142 11.5498 96.922C11.7738 96.698 12.0338 96.526 12.3298 96.406C12.6258 96.282 12.9458 96.22 13.2898 96.22C13.8618 96.22 14.3618 96.332 14.7898 96.556C15.2178 96.776 15.5518 97.092 15.7918 97.504C16.0318 97.912 16.1518 98.4 16.1518 98.968C16.1518 99.548 16.0278 100.062 15.7798 100.51C15.5358 100.954 15.1878 101.302 14.7358 101.554C14.2838 101.806 13.7498 101.932 13.1338 101.932ZM13.1218 101.014C13.4778 101.014 13.7938 100.93 14.0698 100.762C14.3458 100.594 14.5618 100.36 14.7178 100.06C14.8778 99.76 14.9578 99.414 14.9578 99.022C14.9578 98.626 14.8858 98.286 14.7418 98.002C14.6018 97.718 14.3938 97.5 14.1178 97.348C13.8418 97.196 13.5058 97.12 13.1098 97.12C12.7938 97.12 12.4898 97.196 12.1978 97.348C11.9098 97.496 11.6738 97.692 11.4898 97.936C11.3098 98.18 11.2198 98.45 11.2198 98.746C11.2158 99.186 11.2918 99.578 11.4478 99.922C11.6078 100.262 11.8318 100.53 12.1198 100.726C12.4078 100.918 12.7418 101.014 13.1218 101.014ZM20.3183 101.932C19.3703 101.932 18.6183 101.56 18.0623 100.816C17.5063 100.068 17.2283 98.962 17.2283 97.498C17.2283 96.51 17.3563 95.682 17.6123 95.014C17.8683 94.346 18.2283 93.844 18.6923 93.508C19.1563 93.172 19.7023 93.004 20.3303 93.004C21.2703 93.004 22.0183 93.382 22.5743 94.138C23.1343 94.89 23.4143 96.004 23.4143 97.48C23.4143 98.948 23.1363 100.058 22.5803 100.81C22.0243 101.558 21.2703 101.932 20.3183 101.932ZM20.3303 100.972C20.9503 100.972 21.4183 100.7 21.7343 100.156C22.0543 99.608 22.2143 98.718 22.2143 97.486C22.2143 96.23 22.0523 95.326 21.7283 94.774C21.4083 94.218 20.9403 93.94 20.3243 93.94C19.7123 93.94 19.2403 94.22 18.9083 94.78C18.5803 95.336 18.4163 96.238 18.4163 97.486C18.4163 98.714 18.5803 99.602 18.9083 100.15C19.2363 100.698 19.7103 100.972 20.3303 100.972Z" fill="#919EAB"/>
<path d="M13.7495 146.2V143.986H9.66347V142.972L13.7075 137.524H14.8355V143.008H16.2755V143.986H14.8355V146.2H13.7495ZM10.7255 143.008H13.7255V138.982L10.7255 143.008ZM20.3183 146.332C19.3703 146.332 18.6183 145.96 18.0623 145.216C17.5063 144.468 17.2283 143.362 17.2283 141.898C17.2283 140.91 17.3563 140.082 17.6123 139.414C17.8683 138.746 18.2283 138.244 18.6923 137.908C19.1563 137.572 19.7023 137.404 20.3303 137.404C21.2703 137.404 22.0183 137.782 22.5743 138.538C23.1343 139.29 23.4143 140.404 23.4143 141.88C23.4143 143.348 23.1363 144.458 22.5803 145.21C22.0243 145.958 21.2703 146.332 20.3183 146.332ZM20.3303 145.372C20.9503 145.372 21.4183 145.1 21.7343 144.556C22.0543 144.008 22.2143 143.118 22.2143 141.886C22.2143 140.63 22.0523 139.726 21.7283 139.174C21.4083 138.618 20.9403 138.34 20.3243 138.34C19.7123 138.34 19.2403 138.62 18.9083 139.18C18.5803 139.736 18.4163 140.638 18.4163 141.886C18.4163 143.114 18.5803 144.002 18.9083 144.55C19.2363 145.098 19.7103 145.372 20.3303 145.372Z" fill="#919EAB"/>
<path d="M10.2479 190.6V189.922V189.568C10.2479 189.124 10.3299 188.74 10.4939 188.416C10.6619 188.092 10.8819 187.81 11.1539 187.57C11.4299 187.326 11.7299 187.108 12.0539 186.916C12.3819 186.724 12.7079 186.54 13.0319 186.364C13.3599 186.184 13.6599 185.998 13.9319 185.806C14.2039 185.61 14.4219 185.39 14.5859 185.146C14.7539 184.898 14.8379 184.606 14.8379 184.27C14.8379 183.83 14.6819 183.472 14.3699 183.196C14.0619 182.92 13.6439 182.782 13.1159 182.782C12.5479 182.782 12.0919 182.942 11.7479 183.262C11.4039 183.582 11.2099 184.008 11.1659 184.54H10.0619C10.0739 184.04 10.1979 183.584 10.4339 183.172C10.6699 182.756 11.0159 182.424 11.4719 182.176C11.9279 181.928 12.4899 181.804 13.1579 181.804C13.7379 181.804 14.2419 181.908 14.6699 182.116C15.0979 182.32 15.4279 182.608 15.6599 182.98C15.8959 183.348 16.0139 183.778 16.0139 184.27C16.0139 184.718 15.9319 185.102 15.7679 185.422C15.6039 185.742 15.3859 186.02 15.1139 186.256C14.8459 186.488 14.5519 186.696 14.2319 186.88C13.9119 187.064 13.5899 187.242 13.2659 187.414C12.9419 187.582 12.6459 187.76 12.3779 187.948C12.1099 188.132 11.8939 188.344 11.7299 188.584C11.5659 188.824 11.4839 189.11 11.4839 189.442V189.616H16.0619V190.6H10.2479ZM20.3183 190.732C19.3703 190.732 18.6183 190.36 18.0623 189.616C17.5063 188.868 17.2283 187.762 17.2283 186.298C17.2283 185.31 17.3563 184.482 17.6123 183.814C17.8683 183.146 18.2283 182.644 18.6923 182.308C19.1563 181.972 19.7023 181.804 20.3303 181.804C21.2703 181.804 22.0183 182.182 22.5743 182.938C23.1343 183.69 23.4143 184.804 23.4143 186.28C23.4143 187.748 23.1363 188.858 22.5803 189.61C22.0243 190.358 21.2703 190.732 20.3183 190.732ZM20.3303 189.772C20.9503 189.772 21.4183 189.5 21.7343 188.956C22.0543 188.408 22.2143 187.518 22.2143 186.286C22.2143 185.03 22.0523 184.126 21.7283 183.574C21.4083 183.018 20.9403 182.74 20.3243 182.74C19.7123 182.74 19.2403 183.02 18.9083 183.58C18.5803 184.136 18.4163 185.038 18.4163 186.286C18.4163 187.514 18.5803 188.402 18.9083 188.95C19.2363 189.498 19.7103 189.772 20.3303 189.772Z" fill="#919EAB"/>
<path d="M20.3183 235.132C19.3703 235.132 18.6183 234.76 18.0623 234.016C17.5063 233.268 17.2283 232.162 17.2283 230.698C17.2283 229.71 17.3563 228.882 17.6123 228.214C17.8683 227.546 18.2283 227.044 18.6923 226.708C19.1563 226.372 19.7023 226.204 20.3303 226.204C21.2703 226.204 22.0183 226.582 22.5743 227.338C23.1343 228.09 23.4143 229.204 23.4143 230.68C23.4143 232.148 23.1363 233.258 22.5803 234.01C22.0243 234.758 21.2703 235.132 20.3183 235.132ZM20.3303 234.172C20.9503 234.172 21.4183 233.9 21.7343 233.356C22.0543 232.808 22.2143 231.918 22.2143 230.686C22.2143 229.43 22.0523 228.526 21.7283 227.974C21.4083 227.418 20.9403 227.14 20.3243 227.14C19.7123 227.14 19.2403 227.42 18.9083 227.98C18.5803 228.536 18.4163 229.438 18.4163 230.686C18.4163 231.914 18.5803 232.802 18.9083 233.35C19.2363 233.898 19.7103 234.172 20.3303 234.172Z" fill="#919EAB"/>
<path d="M40 8.5L664 8.5" stroke="#919EAB" stroke-opacity="0.2" stroke-linecap="square" stroke-dasharray="2 3"/>
<path d="M40 52.9L664 52.9" stroke="#919EAB" stroke-opacity="0.2" stroke-linecap="square" stroke-dasharray="2 3"/>
<path d="M40 97.3L664 97.3" stroke="#919EAB" stroke-opacity="0.2" stroke-linecap="square" stroke-dasharray="2 3"/>
<path d="M40 141.7L664 141.7" stroke="#919EAB" stroke-opacity="0.2" stroke-linecap="square" stroke-dasharray="2 3"/>
<path d="M40 186.1L664 186.1" stroke="#919EAB" stroke-opacity="0.2" stroke-linecap="square" stroke-dasharray="2 3"/>
<path d="M40 230.5L664 230.5" stroke="#919EAB" stroke-opacity="0.2" stroke-linecap="square" stroke-dasharray="2 3"/>
<path d="M42.2907 265.12C41.9827 265.12 41.6927 265.084 41.4207 265.012C41.1527 264.94 40.9747 264.886 40.8867 264.85L40.9647 263.788C41.0887 263.832 41.2307 263.888 41.3907 263.956C41.5547 264.02 41.7567 264.052 41.9967 264.052C42.3887 264.052 42.6567 263.944 42.8007 263.728C42.9487 263.512 43.0227 263.148 43.0227 262.636V256.324H44.1327V262.954C44.1327 263.414 44.0807 263.806 43.9767 264.13C43.8727 264.454 43.6867 264.7 43.4187 264.868C43.1547 265.036 42.7787 265.12 42.2907 265.12ZM47.7107 265.12C47.3067 265.12 46.9507 265.05 46.6427 264.91C46.3387 264.766 46.0987 264.56 45.9227 264.292C45.7507 264.024 45.6647 263.7 45.6647 263.32C45.6647 262.632 45.9047 262.12 46.3847 261.784C46.8647 261.448 47.6347 261.268 48.6947 261.244L49.7987 261.214V260.728C49.7987 260.348 49.6847 260.048 49.4567 259.828C49.2287 259.604 48.8767 259.492 48.4007 259.492C48.0447 259.496 47.7307 259.58 47.4587 259.744C47.1867 259.908 47.0127 260.176 46.9367 260.548H45.9587C45.9827 260.144 46.0947 259.804 46.2947 259.528C46.4987 259.248 46.7847 259.036 47.1527 258.892C47.5207 258.748 47.9547 258.676 48.4547 258.676C48.9947 258.676 49.4427 258.752 49.7987 258.904C50.1587 259.056 50.4267 259.28 50.6027 259.576C50.7827 259.872 50.8727 260.236 50.8727 260.668V265H49.9247L49.8407 263.836C49.6047 264.32 49.3007 264.656 48.9287 264.844C48.5607 265.028 48.1547 265.12 47.7107 265.12ZM48.0407 264.322C48.2527 264.322 48.4607 264.284 48.6647 264.208C48.8727 264.132 49.0607 264.03 49.2287 263.902C49.4007 263.77 49.5387 263.624 49.6427 263.464C49.7467 263.3 49.7987 263.132 49.7987 262.96V261.898L48.8807 261.916C48.4047 261.924 48.0087 261.972 47.6927 262.06C47.3767 262.148 47.1387 262.286 46.9787 262.474C46.8187 262.662 46.7387 262.908 46.7387 263.212C46.7387 263.56 46.8607 263.832 47.1047 264.028C47.3487 264.224 47.6607 264.322 48.0407 264.322ZM52.6035 265V258.796H53.6775V259.696C53.7775 259.524 53.9155 259.362 54.0915 259.21C54.2715 259.058 54.4875 258.936 54.7395 258.844C54.9955 258.752 55.2895 258.706 55.6215 258.706C56.0135 258.706 56.3735 258.784 56.7015 258.94C57.0335 259.096 57.2975 259.34 57.4935 259.672C57.6935 260 57.7935 260.424 57.7935 260.944V265H56.6835V261.052C56.6835 260.568 56.5555 260.21 56.2995 259.978C56.0475 259.742 55.7195 259.624 55.3155 259.624C55.0355 259.624 54.7735 259.67 54.5295 259.762C54.2855 259.85 54.0875 259.986 53.9355 260.17C53.7835 260.35 53.7075 260.578 53.7075 260.854V265H52.6035Z" fill="#919EAB"/>
<path d="M140.526 265V256.324H145.932L145.926 257.296H141.666V260.164H145.494V261.124H141.666V265H140.526ZM149.869 265.12C149.293 265.12 148.785 264.994 148.345 264.742C147.905 264.49 147.561 264.128 147.313 263.656C147.065 263.184 146.941 262.618 146.941 261.958C146.941 261.306 147.053 260.734 147.277 260.242C147.501 259.75 147.825 259.366 148.249 259.09C148.677 258.814 149.191 258.676 149.791 258.676C150.375 258.676 150.869 258.802 151.273 259.054C151.677 259.306 151.983 259.662 152.191 260.122C152.403 260.578 152.509 261.12 152.509 261.748V262.156H148.063C148.063 262.548 148.127 262.904 148.255 263.224C148.387 263.54 148.585 263.792 148.849 263.98C149.113 264.168 149.447 264.262 149.851 264.262C150.247 264.262 150.587 264.17 150.871 263.986C151.159 263.802 151.343 263.536 151.423 263.188H152.467C152.395 263.608 152.227 263.962 151.963 264.25C151.703 264.538 151.389 264.756 151.021 264.904C150.657 265.048 150.273 265.12 149.869 265.12ZM148.069 261.406H151.441C151.441 261.05 151.381 260.73 151.261 260.446C151.141 260.158 150.957 259.932 150.709 259.768C150.465 259.6 150.157 259.516 149.785 259.516C149.397 259.516 149.075 259.61 148.819 259.798C148.563 259.982 148.373 260.22 148.249 260.512C148.125 260.8 148.065 261.098 148.069 261.406ZM157.11 265.12C156.746 265.12 156.438 265.072 156.186 264.976C155.938 264.88 155.734 264.758 155.574 264.61C155.414 264.458 155.29 264.304 155.202 264.148C155.114 263.988 155.05 263.848 155.01 263.728L154.89 265H154.044V256.084H155.16V259.78C155.212 259.676 155.29 259.562 155.394 259.438C155.502 259.314 155.64 259.194 155.808 259.078C155.976 258.962 156.174 258.866 156.402 258.79C156.634 258.714 156.898 258.676 157.194 258.676C157.97 258.676 158.586 258.946 159.042 259.486C159.502 260.026 159.732 260.822 159.732 261.874C159.732 262.526 159.634 263.096 159.438 263.584C159.242 264.068 158.95 264.446 158.562 264.718C158.174 264.986 157.69 265.12 157.11 265.12ZM156.912 264.268C157.416 264.268 157.826 264.074 158.142 263.686C158.458 263.294 158.616 262.672 158.616 261.82C158.616 261.096 158.468 260.536 158.172 260.14C157.88 259.74 157.452 259.54 156.888 259.54C156.476 259.54 156.144 259.63 155.892 259.81C155.644 259.986 155.46 260.244 155.34 260.584C155.224 260.924 155.164 261.336 155.16 261.82C155.16 262.688 155.294 263.314 155.562 263.698C155.834 264.078 156.284 264.268 156.912 264.268Z" fill="#919EAB"/>
<path d="M241.856 265V256.324H243.392L246.008 263.488L248.66 256.324H250.19V265H249.044V257.986L246.53 265H245.492L242.996 258.052V265H241.856ZM253.961 265.12C253.557 265.12 253.201 265.05 252.893 264.91C252.589 264.766 252.349 264.56 252.173 264.292C252.001 264.024 251.915 263.7 251.915 263.32C251.915 262.632 252.155 262.12 252.635 261.784C253.115 261.448 253.885 261.268 254.945 261.244L256.049 261.214V260.728C256.049 260.348 255.935 260.048 255.707 259.828C255.479 259.604 255.127 259.492 254.651 259.492C254.295 259.496 253.981 259.58 253.709 259.744C253.437 259.908 253.263 260.176 253.187 260.548H252.209C252.233 260.144 252.345 259.804 252.545 259.528C252.749 259.248 253.035 259.036 253.403 258.892C253.771 258.748 254.205 258.676 254.705 258.676C255.245 258.676 255.693 258.752 256.049 258.904C256.409 259.056 256.677 259.28 256.853 259.576C257.033 259.872 257.123 260.236 257.123 260.668V265H256.175L256.091 263.836C255.855 264.32 255.551 264.656 255.179 264.844C254.811 265.028 254.405 265.12 253.961 265.12ZM254.291 264.322C254.503 264.322 254.711 264.284 254.915 264.208C255.123 264.132 255.311 264.03 255.479 263.902C255.651 263.77 255.789 263.624 255.893 263.464C255.997 263.3 256.049 263.132 256.049 262.96V261.898L255.131 261.916C254.655 261.924 254.259 261.972 253.943 262.06C253.627 262.148 253.389 262.286 253.229 262.474C253.069 262.662 252.989 262.908 252.989 263.212C252.989 263.56 253.111 263.832 253.355 264.028C253.599 264.224 253.911 264.322 254.291 264.322ZM258.854 265V258.796H259.91V259.99C260.014 259.694 260.16 259.45 260.348 259.258C260.536 259.062 260.75 258.916 260.99 258.82C261.234 258.724 261.486 258.676 261.746 258.676C261.838 258.676 261.928 258.682 262.016 258.694C262.104 258.706 262.172 258.726 262.22 258.754V259.828C262.16 259.8 262.082 259.782 261.986 259.774C261.894 259.762 261.816 259.756 261.752 259.756C261.504 259.74 261.272 259.756 261.056 259.804C260.84 259.848 260.65 259.926 260.486 260.038C260.322 260.15 260.192 260.298 260.096 260.482C260.004 260.662 259.958 260.882 259.958 261.142V265H258.854Z" fill="#919EAB"/>
<path d="M343.82 265L346.958 256.324H348.212L351.35 265H350.216L349.364 262.624H345.806L344.948 265H343.82ZM346.1 261.604H349.058L347.582 257.41L346.1 261.604ZM352.76 266.932V258.796H353.864L353.876 259.876C353.948 259.748 354.04 259.614 354.152 259.474C354.268 259.334 354.408 259.204 354.572 259.084C354.74 258.964 354.934 258.866 355.154 258.79C355.378 258.714 355.632 258.676 355.916 258.676C356.412 258.676 356.848 258.79 357.224 259.018C357.604 259.242 357.9 259.586 358.112 260.05C358.324 260.514 358.43 261.102 358.43 261.814C358.43 262.526 358.326 263.128 358.118 263.62C357.914 264.108 357.618 264.48 357.23 264.736C356.842 264.992 356.374 265.12 355.826 265.12C355.55 265.12 355.304 265.08 355.088 265C354.876 264.924 354.69 264.824 354.53 264.7C354.374 264.572 354.242 264.436 354.134 264.292C354.03 264.148 353.944 264.01 353.876 263.878V266.932H352.76ZM355.616 264.256C356.128 264.256 356.546 264.062 356.87 263.674C357.194 263.282 357.356 262.674 357.356 261.85C357.356 261.142 357.208 260.58 356.912 260.164C356.616 259.748 356.184 259.54 355.616 259.54C355.04 259.54 354.604 259.754 354.308 260.182C354.012 260.606 353.864 261.162 353.864 261.85C353.864 262.294 353.93 262.698 354.062 263.062C354.194 263.426 354.39 263.716 354.65 263.932C354.91 264.148 355.232 264.256 355.616 264.256ZM359.908 265V258.796H360.964V259.99C361.068 259.694 361.214 259.45 361.402 259.258C361.59 259.062 361.804 258.916 362.044 258.82C362.288 258.724 362.54 258.676 362.8 258.676C362.892 258.676 362.982 258.682 363.07 258.694C363.158 258.706 363.226 258.726 363.274 258.754V259.828C363.214 259.8 363.136 259.782 363.04 259.774C362.948 259.762 362.87 259.756 362.806 259.756C362.558 259.74 362.326 259.756 362.11 259.804C361.894 259.848 361.704 259.926 361.54 260.038C361.376 260.15 361.246 260.298 361.15 260.482C361.058 260.662 361.012 260.882 361.012 261.142V265H359.908Z" fill="#919EAB"/>
<path d="M445.755 265V256.324H447.291L449.907 263.488L452.559 256.324H454.089V265H452.943V257.986L450.429 265H449.391L446.895 258.052V265H445.755ZM457.861 265.12C457.457 265.12 457.101 265.05 456.793 264.91C456.489 264.766 456.249 264.56 456.073 264.292C455.901 264.024 455.815 263.7 455.815 263.32C455.815 262.632 456.055 262.12 456.535 261.784C457.015 261.448 457.785 261.268 458.845 261.244L459.949 261.214V260.728C459.949 260.348 459.835 260.048 459.607 259.828C459.379 259.604 459.027 259.492 458.551 259.492C458.195 259.496 457.881 259.58 457.609 259.744C457.337 259.908 457.163 260.176 457.087 260.548H456.109C456.133 260.144 456.245 259.804 456.445 259.528C456.649 259.248 456.935 259.036 457.303 258.892C457.671 258.748 458.105 258.676 458.605 258.676C459.145 258.676 459.593 258.752 459.949 258.904C460.309 259.056 460.577 259.28 460.753 259.576C460.933 259.872 461.023 260.236 461.023 260.668V265H460.075L459.991 263.836C459.755 264.32 459.451 264.656 459.079 264.844C458.711 265.028 458.305 265.12 457.861 265.12ZM458.191 264.322C458.403 264.322 458.611 264.284 458.815 264.208C459.023 264.132 459.211 264.03 459.379 263.902C459.551 263.77 459.689 263.624 459.793 263.464C459.897 263.3 459.949 263.132 459.949 262.96V261.898L459.031 261.916C458.555 261.924 458.159 261.972 457.843 262.06C457.527 262.148 457.289 262.286 457.129 262.474C456.969 262.662 456.889 262.908 456.889 263.212C456.889 263.56 457.011 263.832 457.255 264.028C457.499 264.224 457.811 264.322 458.191 264.322ZM463.172 266.98C462.808 266.98 462.558 266.954 462.422 266.902C462.286 266.85 462.218 266.824 462.218 266.824V266.104L462.854 266.116C463.082 266.124 463.272 266.108 463.424 266.068C463.576 266.028 463.698 265.974 463.79 265.906C463.882 265.838 463.952 265.762 464 265.678C464.052 265.594 464.094 265.514 464.126 265.438L464.342 264.85L461.918 258.796H463.04L464.87 263.584L466.688 258.796H467.774L465.164 265.468C465 265.86 464.818 266.166 464.618 266.386C464.422 266.606 464.202 266.76 463.958 266.848C463.718 266.936 463.456 266.98 463.172 266.98Z" fill="#919EAB"/>
<path d="M550.758 265.12C550.45 265.12 550.16 265.084 549.888 265.012C549.62 264.94 549.442 264.886 549.354 264.85L549.432 263.788C549.556 263.832 549.698 263.888 549.858 263.956C550.022 264.02 550.224 264.052 550.464 264.052C550.856 264.052 551.124 263.944 551.268 263.728C551.416 263.512 551.49 263.148 551.49 262.636V256.324H552.6V262.954C552.6 263.414 552.548 263.806 552.444 264.13C552.34 264.454 552.154 264.7 551.886 264.868C551.622 265.036 551.246 265.12 550.758 265.12ZM556.718 265.12C556.394 265.116 556.088 265.07 555.8 264.982C555.516 264.89 555.264 264.756 555.044 264.58C554.824 264.404 554.65 264.186 554.522 263.926C554.398 263.662 554.336 263.356 554.336 263.008V258.796H555.446V262.894C555.446 263.298 555.57 263.626 555.818 263.878C556.07 264.13 556.448 264.256 556.952 264.256C557.408 264.256 557.774 264.138 558.05 263.902C558.33 263.662 558.47 263.306 558.47 262.834V258.796H559.574V265H558.692L558.578 263.812C558.502 264.124 558.372 264.376 558.188 264.568C558.008 264.76 557.79 264.902 557.534 264.994C557.282 265.082 557.01 265.124 556.718 265.12ZM561.47 265V258.796H562.544V259.696C562.644 259.524 562.782 259.362 562.958 259.21C563.138 259.058 563.354 258.936 563.606 258.844C563.862 258.752 564.156 258.706 564.488 258.706C564.88 258.706 565.24 258.784 565.568 258.94C565.9 259.096 566.164 259.34 566.36 259.672C566.56 260 566.66 260.424 566.66 260.944V265H565.55V261.052C565.55 260.568 565.422 260.21 565.166 259.978C564.914 259.742 564.586 259.624 564.182 259.624C563.902 259.624 563.64 259.67 563.396 259.762C563.152 259.85 562.954 259.986 562.802 260.17C562.65 260.35 562.574 260.578 562.574 260.854V265H561.47Z" fill="#919EAB"/>
<path d="M650.238 265.12C649.93 265.12 649.64 265.084 649.368 265.012C649.1 264.94 648.922 264.886 648.834 264.85L648.912 263.788C649.036 263.832 649.178 263.888 649.338 263.956C649.502 264.02 649.704 264.052 649.944 264.052C650.336 264.052 650.604 263.944 650.748 263.728C650.896 263.512 650.97 263.148 650.97 262.636V256.324H652.08V262.954C652.08 263.414 652.028 263.806 651.924 264.13C651.82 264.454 651.634 264.7 651.366 264.868C651.102 265.036 650.726 265.12 650.238 265.12ZM656.198 265.12C655.874 265.116 655.568 265.07 655.28 264.982C654.996 264.89 654.744 264.756 654.524 264.58C654.304 264.404 654.13 264.186 654.002 263.926C653.878 263.662 653.816 263.356 653.816 263.008V258.796H654.926V262.894C654.926 263.298 655.05 263.626 655.298 263.878C655.55 264.13 655.928 264.256 656.432 264.256C656.888 264.256 657.254 264.138 657.53 263.902C657.81 263.662 657.95 263.306 657.95 262.834V258.796H659.054V265H658.172L658.058 263.812C657.982 264.124 657.852 264.376 657.668 264.568C657.488 264.76 657.27 264.902 657.014 264.994C656.762 265.082 656.49 265.124 656.198 265.12ZM662.515 265.078C662.179 265.078 661.907 265.032 661.699 264.94C661.495 264.848 661.337 264.724 661.225 264.568C661.117 264.412 661.043 264.234 661.003 264.034C660.967 263.83 660.949 263.62 660.949 263.404V256.084H662.041V263.296C662.041 263.608 662.101 263.842 662.221 263.998C662.345 264.154 662.517 264.24 662.737 264.256L663.073 264.262V264.982C662.981 265.01 662.885 265.032 662.785 265.048C662.685 265.068 662.595 265.078 662.515 265.078Z" fill="#919EAB"/>
<path d="M44 74C44 71.7909 45.7909 70 48 70H60C62.2091 70 64 71.7909 64 74V98H44V74Z" fill="#00B8D9"/>
<path d="M44 98H64V138H44V98Z" fill="#FFAB00"/>
<rect x="44" y="138" width="20" height="92" fill="#007779"/>
<path d="M143.333 149C143.333 146.791 145.124 145 147.333 145H159.333C161.542 145 163.333 146.791 163.333 149V160H143.333V149Z" fill="#00B8D9"/>
<path d="M143.333 160H163.333V181H143.333V160Z" fill="#FFAB00"/>
<rect x="143.333" y="181" width="20" height="49" fill="#007779"/>
<path d="M242.667 130C242.667 127.791 244.458 126 246.667 126H258.667C260.876 126 262.667 127.791 262.667 130V145H242.667V130Z" fill="#00B8D9"/>
<path d="M242.667 145H262.667V171H242.667V145Z" fill="#FFAB00"/>
<rect x="242.667" y="171" width="20" height="59" fill="#007779"/>
<path d="M342 74C342 71.7909 343.791 70 346 70H358C360.209 70 362 71.7909 362 74V98H342V74Z" fill="#00B8D9"/>
<path d="M342 98H362V138H342V98Z" fill="#FFAB00"/>
<rect x="342" y="138" width="20" height="92" fill="#007779"/>
<path d="M441.333 98C441.333 95.7909 443.124 94 445.333 94H457.333C459.543 94 461.333 95.7909 461.333 98V118H441.333V98Z" fill="#00B8D9"/>
<path d="M441.333 118H461.333V153H441.333V118Z" fill="#FFAB00"/>
<rect x="441.333" y="153" width="20" height="77" fill="#007779"/>
<path d="M540.667 34C540.667 31.7909 542.458 30 544.667 30H556.667C558.876 30 560.667 31.7909 560.667 34V60H540.667V34Z" fill="#00B8D9"/>
<path d="M540.667 60H560.667V103H540.667V60Z" fill="#FFAB00"/>
<rect x="540.667" y="103" width="20" height="127" fill="#007779"/>
<path d="M640 115C640 112.791 641.791 111 644 111H656C658.209 111 660 112.791 660 115V132H640V115Z" fill="#00B8D9"/>
<path d="M640 132H660V162H640V132Z" fill="#FFAB00"/>
<rect x="640" y="162" width="20" height="68" fill="#007779"/>
</svg>
